<?xml version="1.0" encoding="UTF-8"?>
<!-- Generator: Adobe Illustrator 21.0.0, SVG Export Plug-In . SVG Version: 6.00 Build 0)  -->
<svg version="1.1" id="Layer_1" xmlns="http://www.w3.org/2000/svg" xmlns:xlink="http://www.w3.org/1999/xlink" x="0px" y="0px" viewBox="0 0 59.2 50" style="enable-background:new 0 0 59.2 50;" xml:space="preserve">
<style type="text/css">
	.st0{fill:#EC7523;}
	.st1{fill:#FFFFFF;}
</style>
<g transform="translate(0.494)">
	<g transform="translate(-0.494 1.474)">
		<g transform="translate(0)">
			<path class="st0" d="M24.6,25.9c-0.2-0.1-0.1,0-0.2,0.1C24.8,26,24.6,25.9,24.6,25.9z"/>
			<path class="st0" d="M28.3,24l0,0.1c0.1-0.2,0.1-0.4,0.1-0.7C28.5,23.7,28.4,23.9,28.3,24z"/>
			<path class="st0" d="M29.2,19.9c-0.3,0.3-0.2,0.6-0.1,1.1c0.1,0.2,0.1,0.4,0.1,0.6c0,0.2,0,0.4-0.1,0.6l-0.1,0.1     c0.1,0.1,0.2,0.3,0.4,0.4c0.1-0.5,0.2-1,0.1-1.6c0-0.2-0.1-0.5-0.1-0.7C29.2,20.3,29.2,20.1,29.2,19.9z"/>
			<path class="st0" d="M29.6,16.5c-0.1,0.2-0.2,0.1-0.2,0.1c0.2,0.2,0.4,0.4,0.5,0.6V17C29.8,16.9,29.8,16.8,29.6,16.5z"/>
			<path class="st0" d="M29.9,17C30.2,17.6,29.9,16.5,29.9,17z"/>
			<path class="st0" d="M28,14.9c0.3,0.1,0.5,0.2,0.8,0.4c0-0.3-0.5-0.9-0.2-0.8c-0.4-0.2-0.6-0.3-0.6-0.2S27.9,14.6,28,14.9z"/>
			<path class="st0" d="M27,15c0.1,0,0.3,0.1,0.4,0.1C27.4,15,27.4,14.9,27,15z"/>
			<path class="st0" d="M28.2,15.5c-0.1-0.1-0.3-0.1-0.4-0.2c-0.1-0.1-0.3-0.1-0.4-0.1c0,0.2-0.1,0.4,0.4,0.2     C27.6,15.4,27.9,15.4,28.2,15.5z"/>
			<path class="st0" d="M28.5,15.9c0.2,0.5,0.4,1-0.3,0.6c0.2,0.2,0.3,0.3,0.6,0.5c0.1,0.1,0.2,0.1,0.3,0c0-0.1,0-0.3-0.1-0.4     C28.9,16.4,28.7,16.1,28.5,15.9z"/>
			<path class="st0" d="M28.5,19.9l-0.1,0.4c0.1,0.1,0.2,0.2,0.3,0.3c-0.1-0.1-0.1-0.3-0.1-0.4C28.6,20,28.6,19.8,28.5,19.9z"/>
			<path class="st0" d="M23,12.3c0,0.2,0.3,0.6,0.4,0.9c0.2-0.1,0.4-0.1,0.6-0.2c-0.2-0.1-0.4-0.2-0.6-0.4     C23.2,12.6,23.1,12.5,23,12.3z"/>
			<path class="st0" d="M23.4,13.2c-0.3,0.1-0.6,0.2-0.8,0.3C23.3,13.7,23.4,13.5,23.4,13.2z"/>
			<path class="st0" d="M26.4,15.8c0.5,0,0.9,0.1,1.4,0.2c-0.1-0.1-0.3-0.1-0.4-0.1c-0.1,0-0.3-0.1-0.4-0.1     c-0.3-0.1-0.5-0.1-0.8-0.1L26.4,15.8z"/>
			<path class="st0" d="M19.3,12.6c0.1-0.2,0.2-0.4,0.4-0.7c-0.3,0.3-0.5,0.7-0.7,1.1C19.1,12.9,19.2,12.7,19.3,12.6z"/>
			<path class="st0" d="M16.9,13.6c0-0.3-0.2-0.4-0.5-0.5c-0.2-0.1-0.5-0.1-0.4-0.4c-0.6,0.5-0.9,1.1-1,1.8     C15.5,14,16.2,13.6,16.9,13.6z"/>
			<path class="st0" d="M14.8,15.6c0.1-0.3,0.2-0.7,0.2-1C14.9,14.9,14.8,15.2,14.8,15.6z"/>
			<path class="st0" d="M21.1,13.6c-0.1-0.1-0.1-0.2-0.3-0.3c-0.2-0.1-0.4-0.2-0.6-0.2c0.2,0.2,0.4,0.4,0.6,0.6     C20.9,13.6,21,13.6,21.1,13.6z"/>
			<path class="st0" d="M20.8,13.6L20.8,13.6c-0.3,0-0.5,0.1-0.8,0.1C20.2,13.7,20.5,13.6,20.8,13.6z"/>
			<path class="st0" d="M21.2,13.5L21.2,13.5C21.1,13.6,21.1,13.6,21.2,13.5z"/>
			<path class="st0" d="M24.7,14.5c-0.1,0.1-0.3,0.1-0.4,0.1c-0.1,0.1-0.3,0.1-0.4,0.2c-0.2,0.2-0.2,0.4,0.2,0.7     c0.1-0.2,0.2-0.4,0.1-0.6C24.3,14.9,24.3,14.7,24.7,14.5z"/>
			<path class="st0" d="M21.8,14.3c0.3,0,0.6,0.1,0.9,0.1c0-0.2-0.2-0.4,0-0.6C22.3,14,22,14.1,21.8,14.3z"/>
			<path class="st0" d="M21.4,14.6l0.4-0.3h-0.3L21.4,14.6z"/>
			<path class="st0" d="M16.7,15c-0.1,0.2-0.2,0.5-0.3,0.6c-0.1,0.2-0.3,0.4-0.5,0.6c0.5-0.3,1-0.5,1.4-0.9     C17.3,15.1,17.2,14.6,16.7,15z"/>
			<path class="st0" d="M18.7,14.2C18.6,14.2,18.6,14.2,18.7,14.2C18.7,14.3,18.7,14.2,18.7,14.2z"/>
			<path class="st0" d="M13.2,20.6c0.1,0,0.1,0,0.2-0.1c-0.1,0-0.1,0-0.1-0.1L13.2,20.6z"/>
			<path class="st0" d="M17.5,15.4c0.4-0.1,0.5-0.4,0.6-0.6c-0.2,0.2-0.5,0.4-0.8,0.6C17.4,15.4,17.5,15.5,17.5,15.4z"/>
			<path class="st0" d="M14.1,17c0.3-0.1,0.6-0.2,0.9-0.4C14.6,16.7,13.9,16.8,14.1,17z"/>
			<path class="st0" d="M18.4,14.1C18.4,14.1,18.4,14.1,18.4,14.1C18.2,14,18.2,14,18.4,14.1z"/>
			<path class="st0" d="M18.4,14.1c-0.1,0.2-0.2,0.4-0.3,0.6c0.2-0.1,0.3-0.3,0.5-0.5C18.5,14.2,18.4,14.1,18.4,14.1z"/>
			<path class="st0" d="M18,22.5c-0.1,0,0-0.2-0.3-0.4c-0.1-0.2-0.1-0.4,0.1-0.6c0,0,0,0,0.1,0c0,0,0.1-0.1,0.1-0.1c0,0,0.1,0,0.1,0     c0,0,0,0,0,0v-0.1L18,21.2c-0.1,0-0.1-0.1-0.1-0.1c-0.1-0.1-0.3-0.1-0.4-0.2c-0.4-0.2-0.8-0.3-1.2-0.4c-1-0.2-1.9-0.2-2.9,0.1     c0.4,0.1,0.6,0.2,0.9,1.2c0.3-0.1,0.6-0.6,1-0.8s0.8-0.3,1,0.1c0.1,0.5,0,0.6-0.2,0.8c-0.3,0.1-0.5,0.2-0.8,0.4     c0.5-0.1,0.9,0.2,1.3,0.5c0.2,0.2,0.5,0.3,0.7,0.4c0.1,0,0.3,0.1,0.5,0.1h0.1c0,0,0,0,0,0c0-0.1-0.1-0.2-0.1-0.3v-0.2     c0,0,0-0.1-0.1-0.1C17.9,22.4,17.9,22.4,18,22.5C17.9,22.4,17.9,22.4,18,22.5C17.9,22.6,18,22.6,18,22.5z"/>
			<path class="st0" d="M14.1,18.8l0.1-0.4c-0.5,0.4-1.1,0.7-1.7,0.9c0.1,0.8,0.4,1,0.6,1.1c0.2-0.6,0.6-1.2,0.9-1.8L14.1,18.8z"/>
			<path class="st0" d="M15.3,17c0.2,0.3,0.3,0.7,0.4,1.1c0.2,0.4,0.5,0.6,0.9,0.6c0.2-0.2,0.2-0.5,0.1-0.8     c-0.1-0.2-0.2-0.5-0.1-0.8c-0.5,0.7-0.5,0.5-0.5,0.3C16.1,17.1,16,16.7,15.3,17c0.2-0.3,0.4-0.6,0.6-0.8c-0.3,0.1-0.6,0.3-1,0.5     H15c0.1,0,0.2,0,0.1,0.1v0C15.2,16.8,15.2,16.9,15.3,17c-0.5,0.3-0.2-0.1-0.2-0.2L15,16.7l0,0c-0.2,0.3-0.3,0.6-0.4,0.9     c-0.1,0.3-0.2,0.6-0.3,0.9C14.6,18.2,14.8,17.7,15.3,17z"/>
			<path class="st0" d="M23.4,17c0,0,0-0.1,0-0.1C23.3,16.9,23.3,17,23.4,17z"/>
			<path class="st0" d="M22.9,16.6c0.1-0.1,0.1-0.4,0.4-0.3c0.2,0.2,0,0.3,0,0.5c0.1-0.1,0.2-0.2,0.3-0.3c0.1-0.1,0.1-0.3-0.2-0.4     l-0.1,0.1c-0.3-0.2-0.6-0.4-0.9-0.6C22.2,15.3,22,15.1,22,15C22.3,15.6,22.6,16.1,22.9,16.6z"/>
			<path class="st0" d="M19.5,16.1l-0.4,0.4c-0.1,0.1-0.3,0.3-0.4,0.5c0.3,0.1,0.6,0.1,0.9,0.2l-0.2-0.3     C20,16.7,19.6,16.4,19.5,16.1z"/>
			<path class="st0" d="M12.7,20.7c-0.3-0.1-0.6-0.3-0.9-0.4c0.3,0.4,0.7,0.8,1.1,1.2C12.8,21.2,12.7,21,12.7,20.7z"/>
			<path class="st0" d="M12.4,22.9c-0.3,0-0.6-0.1-0.9-0.1c0.1,0.2,0.3,0.4,0.5,0.6C12.1,23.2,12.3,23,12.4,22.9z"/>
			<path class="st0" d="M9.8,24l0.1,0.2C9.9,24.1,9.9,24,9.8,24z"/>
			<path class="st0" d="M10,22.2L10,22.2C9.9,22.3,10,22.3,10,22.2z"/>
			<path class="st0" d="M41.5,15.9c1.1-1,2.7-2.4,1.3-1.8c-0.4,0.2-0.9,0.5-1.3,0.7C41.8,15.1,41.8,15.6,41.5,15.9z"/>
			<path class="st0" d="M18.1,10.9h0.1c0,0,0.1-0.1,0.1-0.1c0,0,0-0.1,0-0.1s0-0.1,0-0.2c0-0.1,0-0.2-0.1-0.4     C18.2,10.4,18.2,10.9,18.1,10.9z"/>
			<path class="st0" d="M18.1,11.6l-0.5,0.1C17.8,11.7,17.9,11.7,18.1,11.6z"/>
			<path class="st0" d="M12.8,32.9l0.3,0.1C12.9,32.7,12.9,32.9,12.8,32.9z"/>
			<path class="st0" d="M25.9,36.5c0.4,0.4,1,0.6,1.5,0.7c-0.4-0.3-0.8-0.7-1-0.9C26.1,36.1,26,36,25.9,36.5z"/>
			<path class="st0" d="M0.8,22.9c0.2,0.3,0.6,0.4,0.9,0.4C1.5,23,1.2,22.9,0.8,22.9z"/>
			<path class="st0" d="M29.2,37c-0.1-0.1-0.3-0.2-0.4-0.2c-0.2,0.1-0.4,0.3-0.6,0.4c-0.2,0.1-0.5,0.1-0.7,0.1     c0.3,0.2,0.6,0.4,0.9,0.4C28.7,37.6,29,37.4,29.2,37z"/>
			<path class="st0" d="M42.9,32L42.9,32L42.9,32z"/>
			<path class="st0" d="M48.6,22.8c0,0.2,0,0.3,0,0.5C48.7,23.1,48.7,22.9,48.6,22.8z"/>
			<path class="st0" d="M14,31.1C13.7,30.8,13.9,31.2,14,31.1z"/>
			<path class="st0" d="M16.5,27.2c0.2,0,0.3,0,0.5-0.1C16.9,27.2,16.7,27.2,16.5,27.2z"/>
			<path class="st0" d="M29.4,28.7"/>
			<path class="st0" d="M14,30.3c0,0.2,0,0.5,0.1,0.7C14.1,30.7,14.1,30.5,14,30.3z"/>
			<path class="st0" d="M13.7,30.6c-0.1-0.2-0.1-0.3-0.1-0.4C13.4,30.2,13.3,30.4,13.7,30.6z"/>
			<path class="st0" d="M14.4,31.6c-0.2-0.2-0.3-0.4-0.3-0.7c0,0.1,0,0.2-0.1,0.2C14.1,31.3,14.3,31.5,14.4,31.6z"/>
			<path class="st0" d="M26.4,40.6L26.4,40.6C26.7,40.6,26.6,40.6,26.4,40.6z"/>
			<path class="st0" d="M29.6,13.5"/>
			<path class="st0" d="M28.9,13.1c0.3,0,0.6,0.2,0.7,0.4c0.1-0.2,0.1-0.4,0.1-0.6C29.4,12.9,29.2,13,28.9,13.1z"/>
			<path class="st0" d="M10.5,28.1v-0.6c0.2,0.2,0.3,0.5,0.4,0.7c0.1,0.1,0.1,0.1,0.1-0.2c-0.1,0-0.2-0.1-0.3-0.3     c-0.1-0.2-0.2-0.5-0.2-0.7c-0.1-0.3-0.1-0.5-0.2-0.7s-0.1-0.4-0.3-0.4l0.1-0.4c0,0.1,0,0.1,0.1,0.2c0.1-0.2,0-0.5-0.1-0.6     c-0.2-0.2-0.3-0.5-0.3-0.8c0-0.3,0.1-0.6,0.2-0.4c-0.1-0.2-0.1-0.5-0.1-0.7c0-0.2,0.1-0.1,0.1,0.1c0-0.4,0-0.7,0.1-1.1l0,0     c-0.1-0.2-0.1-0.5-0.2-0.7c0.1-0.3,0,0.1,0.1,0.1l0-0.3v-0.3c0.2-0.2,0.2,0.3,0.1,0.7c0.2-0.1,0.3-0.3,0.3-0.6     c0-0.4,0.1-0.7,0.3-1.1c0,0.2-0.1,0.4-0.1,0.6c0.2-0.1,0.3-0.3,0.4-0.5c0.1-0.2,0.2-0.4,0.4-0.7c-0.1,0.1-0.3,0.3-0.5,0.5     s-0.4,0.2-0.3-0.1c0.1-0.2,0.2-0.5,0.2-0.8c0.1,0,0.1,0,0.2-0.1c0.1-0.1,0.1-0.3,0.2-0.5l0.2,0.1c0.1-0.4,0-0.5,0-0.8     c0.3-0.4,0.5-0.4,0.7-0.4c0.5-0.7-0.6,0.3-0.1-0.6c0.2-0.2,0.4-0.5,0.6-0.8c0-0.1,0.1-0.1,0.1-0.2c0.1-0.1,0.1-0.1,0.1-0.2     c0.1-0.1,0.2-0.3,0.3-0.5c0.4-0.3,0.1,0.2,0.2,0.1c0.1-0.1,0.1-0.3,0.1-0.5c0.1-0.1,0.1,0,0.1,0c0.2-0.3-0.1-0.2,0.2-0.6     c0-0.1,0.2-0.3,0.6-0.4c0.2-0.1,0.4-0.2,0.6-0.3c0.2-0.1,0.3-0.2,0.4-0.4c0.2,0,0,0.2,0.1,0.2c0.7-0.7,0.6-0.6,1.2-1.2     c0.2-0.1,0.5-0.1,0.7-0.1c-0.3,0-0.3-0.1-0.2-0.3c0.2-0.2,0.4-0.4,0.6-0.6H18c0,0,0-0.1-0.1-0.1s-0.1-0.1-0.1-0.1     c-0.1-0.2-0.2-0.3-0.3-0.5c-0.2-0.3-0.4-0.5-0.5-0.7c0.2-0.5,0.4-1.1,0.6-1.6c0.3,0.7,0.5,1.4,0.5,2.2V9.5     c0.2,0.2,0.3,0.4,0.4,0.6c0.1,0.1,0.1,0.3,0.1,0.4l0,0.1l0,0v0c0,0.1-0.1,0.2-0.2,0.3c-0.1,0-0.3,0-0.4,0     c-0.2,0.2-0.3,0.5-0.2,0.6c0.1-0.1,0.2-0.1,0.3-0.2c0,0.1-0.1,0.1,0,0.1c0,0,0.1-0.1,0.2-0.2l0.3,0.2v-0.1     c0.4-0.1,0.8-0.1,1.2-0.1c0.4-0.2,0.8-0.4,1.2-0.7c0.2-0.1,0.5-0.2,0.8-0.3c0.2,0,0.3-0.1,0.4-0.1c0.2,0,0.3-0.1,0.5-0.1     c-0.4,0.2-0.1,0.4-0.1,0.6c-0.2-0.1-0.5-0.1-0.8,0c-0.3,0.1-0.7,0.2-1,0.2c0.4,0,0.3,0.1,0.2,0.1c0.4-0.1,0.8-0.2,1.2-0.3     c0,0.1,0.1,0.1,0.2,0.1c0.1,0,0.3,0,0.4,0.1c-0.1-0.2,0.1-0.3,0.4-0.3h0.3c0.1,0,0.2,0,0.3,0c0.2,0,0.3,0,0.5,0     c0,0.1-0.1,0.3-0.7,0.1c0.2,0.2,0.5,0.2,0.8,0c0.3-0.1,0.6-0.1,0.8,0.1c-0.1,0-0.2-0.1-0.3,0c0.2,0,0.5,0.1,0.7,0.1     c0.2,0.1,0.4,0.2,0.2,0.2l-0.1-0.1c0.2,0.1,0.5,0.2,0.9,0.3c0.3,0.2,0.6,0.3,0.9,0.4c0.3,0.1,0.5,0.2,0.8,0.4     c0.2,0.1,0.4,0.1,0.5,0.1c-0.1,0.1-0.3,0.2-0.4,0.3l1.1,0.1l0.3,0.1l0.1,0l0.5-0.4c0.7-0.5,1.4-1,2.2-1.5     c-0.6,0.6-1.2,1.1-1.8,1.8c-0.1,0.1-0.3,0.3-0.5,0.5l0,0.1c0,0.1-0.1,0.1-0.1,0.1c-0.1,0.2-0.3,0.3-0.7,0.1     c0.1,0.1,0.1,0.2,0.3,0.3c0.1,0.2,0.3,0.3,0.5,0.4c-0.1-0.1,0-0.6,0.2-0.4c0.2,0.7,0.2,0.4,0.4,1.2c-0.1-0.2,0.4-0.3,0.6,0.1     c-0.1,0-0.4,0.3-0.5,0.2c0.3,0.2,0.6,0.4,0.9,0.6c-0.2-0.2-0.4,0.1-0.4,0.4c0-0.1,0.4,0.7,0.5,0.9c0-0.1,0-0.3-0.1-0.4     c0.1,0.1,0.1,0.2,0.2,0.3c0,0.1,0.1,0.2,0.1,0.2c0.1,0.1,0.2,0.2,0.4,0.4c0.3,0.2,0.5,0.6,0.6,1c-0.1-0.1-0.3-0.1-0.5,0     c-0.1,0.1-0.1,0.2-0.1,0.3c0.3,0.2,0.5,0.4,0.8,0.7l0.1,0.1H34c0.3,0,0.6,0.1,0.9,0.1c0.5,0.1,1,0.1,1.5,0.3     c0.7,0.1,1.4,0.4,2,0.9c-0.4,0.1-0.7,0.2-1.1,0.3c0.4,0.4,0.8,0.8,1.2,1.2c-0.7-0.3-1.6-0.6-2.6-0.9c-0.5-0.1-1-0.3-1.5-0.4     c-0.1,0-0.3-0.1-0.4-0.1L33.8,21h0v0c0-0.1-0.1-0.1-0.1-0.2c-0.1-0.2-0.3-0.5-0.4-0.7c-0.1-0.2-0.3-0.4-0.4-0.6     c0,0.2-0.1,0.2-0.1,0.3c0,0.1,0,0.1,0,0.4c-0.1,0.2-0.2-0.3-0.2-0.5c0,0.2,0,0.5,0,0.7v0.7c0.3-0.1,0.2,1,0.4,1     c0-0.3,0-0.5-0.1-0.8c0-0.1,0-0.2-0.1-0.4l-0.1-0.4c0.1,0,0.3,0.2,0.5,0.5c0.1,0.2,0.1,0.4,0.1,0.6c0,0.3,0,0.5-0.1,0.8     c-0.1,0.2-0.4-0.3-0.5-0.3c0,0.2,0.1,0.4,0,0.5c0,0.2-0.1,0.3-0.1,0.5l0-0.4c-0.1,0.2-0.1,0.5-0.1,0.7c0,0.1,0,0.3-0.1,0.4     c0,0.2-0.1,0.3-0.2,0.4c-0.1,0.2-0.6,0.5-0.5,0.6c0.3-0.1,0.6-0.1,0.8,0.1c0,0,0.1,0,0.1,0l0.1,0c0.1,0.1,0.2,0.1,0.3,0.2     c0.5,0.3,1,0.5,1.4,0.8c0.7,0.3,1.3,0.7,1.9,1.2c-0.6,0.1-1.1,0.2-1.7,0.2c-0.2,0-0.4,0-0.6,0c-0.2,0-0.4-0.1-0.6-0.1     c-0.4-0.1-0.7-0.2-1.1-0.3c-0.2-0.1-0.4-0.2-0.6-0.4c0,0-0.1,0-0.1-0.1c0-0.1,0-0.2,0-0.3c0-0.2,0-0.4-0.2-0.3     c0.1,0.1,0,0.3,0,0.4c-0.1,0.1-0.1,0-0.1,0s-0.1,0-0.3,0.2c0.1,0.1-0.1,0.3-0.2,0.4c-0.1,0.1-0.1,0.1,0.2-0.1     c-0.1,0.2-0.2,0.3-0.4,0.4c-0.2,0.1-0.3,0.2-0.5,0.4c0.1,0,0.1,0.2,0,0.4l-0.1,0.2l0,0.1v0.1l0,0.1c0,0.1,0.1,0.2,0.1,0.3     c0.1,0.3,0.1,0.6,0.1,1c-0.1-0.2-0.3-0.5-0.5-0.7c-0.1-0.1-0.2-0.2-0.2-0.3l-0.1-0.1c0,0,0,0,0,0h0c-0.2,0.1-0.4,0.2-0.7,0.3     c-0.2,0.1-0.4,0.2-0.6,0.2l-0.6,0.2c-0.2,0-0.4,0.1-0.7,0.1c-0.1,0-0.6,0-0.4-0.1c-0.2,0.1-0.4,0.2-0.6,0.2     c-0.3-0.1-0.1-0.1,0.1-0.1c0.2,0,0.4-0.1,0.1-0.2c0,0.2-0.8,0.3-1.2,0.4c0.1,0.1,0.3,0.1,0.6,0.1l0.4-0.1     c0.1-0.1,0.3-0.1,0.4-0.1c0,0.1,0,0.2-0.1,0.2l-0.1,0.1l0,0c0,0.1,0,0.1,0,0.2c0,0.3-0.1,0.6-0.1,0.9c-0.2,1-0.8,1.9-1.7,2.4     c-0.3,0.1-0.5,0.1-0.6-0.1c-0.1-0.2-0.1-0.3-0.1-0.5c0.1-0.4,0.2-0.8,0.1-0.7c-0.4-0.2-0.9-0.1-1.3,0.1c-0.4,0.2-0.8,0.5-1.1,0.9     c-0.3,0.3-0.7,0.5-1.1,0.5c-0.4,0-0.7-0.2-1-0.9c0-0.7,0.3-1.4,0.8-1.9c0.4-0.4,0.7-0.9,1-1.4c0.2,0,0.4,0.1,0.5,0.2     c0.1,0.1,0.2,0.3,0.2,0.5c0.1,0.4,0.2,0.8,0.5,0.9c-0.2-0.3-0.3-0.6-0.4-0.9c0.2-0.1,0.4-0.2,0.7-0.3c0.2,0,0.4,0.1,0.4,0.3     c0,0,0,0,0,0c0-0.1,0-0.2-0.1-0.2c0-0.1-0.1-0.1-0.1-0.2c-0.1-0.1-0.2-0.1-0.4-0.1c-0.1-0.1-0.3-0.1-0.4-0.2     c-0.1-0.1-0.3-0.1-0.5-0.3c-0.7-0.4-1.3-0.9-1.7-1.5c-0.1-0.1-0.2-0.1-0.3-0.2c-0.1,0-0.1,0-0.2-0.1c0,0,0,0-0.1,0     c-0.1,0.1-0.2,0.1-0.3,0.3c0.1,0.1,0.3,0.1,0.4,0.2c-0.2,0.4-0.6,0.6-1,0.6c-0.4,0-0.6,0-0.6,0.4c-0.5,0-1.1-0.1-1.6-0.4     c-0.2-0.1-0.4-0.3-0.6-0.5c-0.2-0.2-0.2-0.5-0.2-0.8c0.4-0.3,0.8-0.5,1.3-0.7c-0.2,0.1-0.3,0.3-0.4,0.6c0,0.2,0.1,0.4,0.3,0.5     c0,0,0,0,0,0c-0.4-0.1-0.1-0.6,0.1-1.1c0.2-0.5,0.2-0.8-0.7-0.8c-0.3,0.3-0.5,0.6-0.7,1c-0.5-0.3-1.1-0.6-1.5-1     c-0.2-0.2-0.4-0.5-0.5-0.7c-0.1-0.3-0.1-0.6,0-0.9c-0.7,0.3-0.6,0.4-0.6,0.5c0,0.1,0,0.2-0.7,0.8c0.9-0.5,0.9,0.2,1.1,0.9     c0,0.3,0.1,0.6,0.3,0.8c0.2,0.1,0.4,0,0.9-0.4c-0.6,0.4-0.9,1-0.9,1.6c0,0.3,0,0.5-0.1,0.8c0,0.2-0.1,0.3-0.1,0.5     c-0.1,0.2-0.1,0.4-0.2,0.6c0.4-0.3,0.6-0.9,0.9,0.2c0.2,0,0.3,0,0.5,0v0.1c0,0,0-0.1,0-0.1c0.1,0,0.1,0,0,0     c0-0.3,0.2-0.6,0.4-0.9c0.3,0,0.5,0,0.8,0.1c0.2,0.1,0.5,0.2,0.7,0.4c0.3,0.3,0.8,0.5,1.2,0.5c0.1,0.3-0.1,0.4-0.2,0.4     c-0.2,0-0.4,0.2-0.5,0.4c0.4,0,0.8-0.1,1.1-0.1c-0.3,0.5-0.5,1-0.5,1.5c0,0.2-0.1,0.4-0.3,0.5c-0.1,0.1-0.4,0.1-0.8,0     c0.3,0.3,0.6,0.7,1,1c0.2,1.1,1.1,2,2,1.9c0.1,0.1,0.3,0.2,0.5,0.2c0.2,0,0.4,0,0.6-0.1c0.3-0.1,0.5-0.2,0.1,0.1     c0.7,0.1,1.5,0.1,2.2,0l0,0.3c0.5,0.1,1.1,0.2,1.6,0.1c0.5-0.1,1.1-0.2,1.6-0.4c0.5-0.1,1-0.2,1.5-0.1c0.6,0.1,1.3,0.4,1.8,0.8     c0.3-0.2,0.6-0.5,0.9-0.6c0.4-0.2,0.9-0.3,1.4-0.3c0.2,0.3,0.4,0.6,0.6,1c0.4-0.4,1.1-0.3,1.8-0.4s1.2-0.3,1.1-0.9     c1.3,1,2.5,0.5,3.4-0.5c0.1-0.1,0.2-0.2,0.3-0.4c0.1-0.1,0.2-0.3,0.3-0.4c0.2-0.3,0.4-0.5,0.6-0.8c0.3-0.5,0.6-0.9,1.1-1.2     l-1.3-1c0.8-1,1.1-2.2,1-3.4l-1.4-0.5c-0.1-0.3-0.1-0.7,0-0.9c0.2-0.3,0.5-0.6,0.7-0.9c0.3-0.3,0.6-0.6,0.9-1     c0.3-0.4,0.4-0.8,0.5-1.2c0.5,0.2,0.3,0.6-0.1,0.9c0.9-0.4,1.3-0.9,1.3-1.5c0-0.3-0.1-0.6-0.1-0.9c-0.1-0.2-0.1-0.3-0.2-0.4     c-0.1-0.1-0.2-0.3-0.3-0.4c-0.4-0.4-0.7-0.9-0.9-1.4c-0.2-0.5,0-1.1,0.4-1.4c-0.3-0.2-0.4-0.3-0.4-0.5c0-0.2,0.1-0.4,0.3-0.6     c0,0,0.1,0.1,0.1,0.1c0-0.1,0-0.1,0-0.2c0.2-0.3,0.4-0.5,0.6-0.8c-0.3,0.2-0.5,0.5-0.7,0.7c-0.2-0.5-0.5-0.9-0.9-1.1     c0.5-0.2,1-0.5,1.5-0.7c0,0,0-0.1-0.1-0.1c0.4-0.7-0.9-0.1-1.9,0.5C39,15,38.6,15,38.2,15c1.2-0.7,0.9-0.9,0.5-1.1     c-0.3-0.2-0.6-0.4,0.5-1.4c-1.4,0.3-2.1-1.7-4.7-0.1c0.3-0.2,0.4-0.4,0.5-0.3c0-0.3,0-0.5-0.1-0.8c-0.1-0.1-0.2-0.2-0.3-0.2     c-0.2,0-0.4,0-0.5,0c0.5-0.5,1-1,1.5-1.6c-1,0.3-1.9,0.7-2.8,1.2c0.5-1.3,0.8-2.2,2.4-2.9c-0.8,0.1-1.2,0.2-1.6,0.3     c-0.2,0-0.5,0-0.7,0c-0.7,0-1.4,0.3-2,0.7l0.9-1.1c-0.2-0.1-0.7,0.1-1.1,0.3S30,8.2,30.2,7.6c0.2-1.4-1-2.2-2.5-2.8     c-0.4-0.1-0.8-0.3-1.2-0.4c-0.2-0.1-0.4-0.1-0.6-0.2S25.5,4,25.3,4c-0.4-0.2-0.8-0.4-1.2-0.6c-0.4-0.2-0.8-0.5-1.2-0.8     c0.2,2.2-0.1,1.7-0.5,1C22,3,21.5,2.3,21.5,4c-0.2-1-0.6-1.6-0.2-2.4c-0.3,0.2-0.6,0.3-1,0.3c-0.3,0-0.6-0.1-0.9-0.2     c-0.5-0.1-1,0-1.2,1.5C18,2.7,18,2.3,18,1.9c0.1-0.3,0-0.6-0.1-0.9c-0.1,0.2-0.3,1-0.6,0.4s0-0.9,0.2-1.4c-0.8,0.3-1.1,1.2-1,2.4     c0.2,1.4,0.4,2.8,0.8,4.1c-1-1.1-1.4-0.8-1.1,1.1c-0.5-0.8-1.3-1.6-0.6-2.2h-0.7c-0.3,0-0.7,0.1-1,0.2c-0.3,0.1-0.6,0.3-0.7,0.6     c-0.1,0.4,0,0.9,0.2,1.2C13,7,12.7,7.7,12.8,8c-0.3,0.1-0.7,0.3-1,0.4c-0.3,0.2-0.6,0.4-0.8,0.7l0.5,0.1c0.7,1.3,0.7,1.5,0.4,1.5     c-0.3,0-0.8-0.1-1,0.3l-0.2-0.2c-0.7-0.1-1,0-1.2,0.1c-0.1,0.1-0.2,0.3-0.1,0.4c0,0.1,0,0.3-0.2,0.4c-0.4,0.1-0.9,0.1-1.3,0.1     l1.4,1.1c1.4,1.3,0.8,1.2-0.2,1c-0.5-0.1-1-0.1-1.5-0.1C7.2,13.8,7,14,7.2,14.4c0.4,0.1,0.7,0.1,1.1,0.2c0.4,0.6-0.9,0.2-2.4-0.2     c-0.7-0.2-1.5-0.4-2.3-0.5c-0.5-0.1-0.9-0.1-1.4,0c-0.4,0-0.4-0.4-0.5-0.8c-0.7,0.2-0.9,0.4-0.9,0.6c0.1,0.2,0.4,0.4,0.8,0.5     c0.9,0.4,2,0.9,2,1.6c-0.7-0.2-1.3-0.4-1.9-0.8c-0.6-0.3-1.1-0.4-1.4,0c-0.6,0.1,0.1,1.1,0.7,2.1c0.6,1,1.1,1.9-0.2,2.3     c0.5-0.1,1-0.1,1.4,0c0.4,0,0.9,0.3,1.1,0.6c0.1,0.4-0.9,0.9-1.5,1.4c-0.6,0.5-0.9,1.2,0.6,1.6c-0.2,0.1-0.5,0.1-0.8,0.1     c0.2,0.2,0.4,0.4,0.5,0.6c0.2,0.3,0.4,0.5,0.6,0.7c0.5,0.5,1.1,0.9,1.8,0.9c-3,0.5-2.1,1.5-1.2,2.2c0.2,0.2,0.5,0.4,0.6,0.5     c0.2,0.1,0.3,0.3,0.3,0.5c0,0.3-0.4,0.6-1.7,0.9c0.3,0.6,0.6,1.2,0.9,1.8L3,31.6c0,0.6,0.4,1,1,1.1c0.6,0.1,1.3,0.1,1.9,0     c-0.2,0.4-0.8,0.4-1,0.5c-0.1,1,0,1.6,0.4,1.9c0.9,0.3,1.9,0.3,2.8,0.1l-1.4,1.1C7.3,36.2,7,37.1,7.1,38c0.1,0.9,0.5,2,1.9,2     c-0.2,0.2-0.4,0.3-0.7,0.4c0.3,0,0.6,0.1,0.9,0.3c0.2,0.2,0.4,0.4,0.5,0.7c0.3,0.6,0.4,1.2,0.6,1.8c0.5,1.2,1.3,1.8,3.2-0.5     c0.6-0.2,1.2-0.4,1.8-0.6c-0.6-0.6-0.1-1.1,0.4-1.6s1.1-1,1.1-1.6c0.3,0,0.4,0.5,0.3,1.1C17,40.4,16.8,41,16.4,41l0.1-0.3     c-0.9,1.2-0.6,1.7-0.2,2.1c0.4,0.4,0.9,0.6,0.4,1.5c1.5,0.5,2.9,1.3,4.4,1.9c1.4,0.7,3,1,4.6,1.1c-0.1-0.7-0.2-1.4-0.3-2.1     c0.3,0,0.6,0.1,1,0.1c0.3,0.5,0.4,1.6-0.4,1.6c0.2,0.6,0.5,0.3,0.7-0.2c0.2-0.4,0.4-0.9,0.4-1.4c0.7,0.3,0.6,0.9,0.4,1.5     s-0.6,1-0.4,1c0.2-0.1,0.4-0.1,0.6-0.2l-0.1-0.2c0.4-0.9,0.4-1.8,1.2-1.8c0.6,0.3,0.4,1.2,0.6,1.2c0,0.1,0.1,0.2,0.3,0     c0.4,0,0.9-0.1,1.3-0.1c-0.3-0.4-0.5-0.9-0.8-1.4c0.4-0.9,1.1-0.2,0.3-1.8c0.6,1.2,1.8,1.1,2.8,0.7c0.5-0.2,1-0.4,1.4-0.6     s0.7-0.3,0.9-0.2c0.1-0.5,0.3-0.9,0.6-1.3c0.3-0.3,0.7-0.5,1-0.6c-0.3-0.1-1.1-1.4-0.4-1.6c0.6,1.4,1.1,1.5,1.5,1.4     c0.6-0.2,1.3-0.1,1.8,0.3c-0.3-0.2-0.4-0.4-0.3-0.6c0.1-0.2,0.2-0.5,0.4-0.6c0.3-0.5,0.5-0.9-0.4-1.4c0.3-0.1,0.5,0.1,0.6,0.4     c0.2,0.3,0.4,0.5,0.7,0.6c0.1-0.4,0.3-0.8,0.6-1.1c0.3-0.3,0.7-0.6,1-0.8c0.8-0.5,1.5-1.1,1.9-2c-0.2-0.2-0.7-0.3-0.9-0.9     c0.5,0.1,1.1,0.1,1.7,0.1c0-0.2-0.2-0.5-0.4-0.8s-0.2-0.5,0.4-0.5c-0.2-0.1-0.6-0.1-0.5-0.4c0.3-0.3,0.6-0.6,0.9-1     c0.1-0.2,0.2-0.4,0.4-0.6l0.3-0.6c0.3-0.9,0.6-1.7,0.7-2.6l0.3-1.3c0.1-0.4,0.2-0.9,0.3-1.3c0.1-0.4,0.2-0.9,0.3-1.3l0.2-0.6     l0.1-0.6c-0.2,0.4-0.2,0.1-0.3-0.2c-0.1,0.2-0.3-0.1-0.4,0c0.2-0.4,0.3-0.9,0.3-1.4c-0.2-0.1-0.2-0.5-0.3-0.9     c0-0.3-0.1-0.6-0.2-0.8l0.1,0.4c-0.2-0.3-0.2-0.1-0.4,0.1c-0.1,0.1-0.1,0.1-0.1,0.2l-0.1,0.2c-0.1,0.1-0.1,0.2-0.2,0.1     c0,0.4,0,0.8-0.2,1.2l-0.2,0.7c-0.1,0.3-0.1,0.5-0.1,0.8c-0.1,0.2,0-0.2-0.1-0.1c0,0.4,0,0.8-0.2,1.1V25c-0.1,0.4-0.2,0.7-0.3,1     s-0.2,0.6-0.4,0.9c-0.1,0.3-0.3,0.6-0.4,0.9c-0.2,0.3-0.3,0.6-0.6,1.1l0.2-0.1c-0.1,0.2-0.2,0.4-0.4,0.6c0,0.5,0.5-1,0.5-0.5     c-0.3,0.4-0.7,0.9-0.9,1.4c-0.2,0.3-0.3,0.5-0.5,0.8c-0.1,0.2-0.3,0.3-0.4,0.4c-0.4,0.5,0.2-0.1-0.1,0.4l-0.2,0.1V32     c-0.2,0.3-0.5,0.4-0.5,0.4c0.1-0.1,0.1-0.2,0.2-0.3c-0.2,0.2-0.4,0.5-0.6,0.7c-0.1,0.2-0.3,0.4-0.4,0.5l0.4-0.4     c-1.1,1.3-2.4,2.5-3.7,3.7h0.1c-0.3,0.3-0.6,0.5-0.9,0.6L37,37.4c-0.1,0.1-0.4,0.2-0.6,0.4l0,0c-0.2,0.2-0.5,0.4-0.8,0.6     c0.3-0.2-0.6,0.1-0.3-0.1c-0.3,0.1-0.5,0.3-0.8,0.5c-0.1,0.2-0.3,0.3-0.4,0.5l-0.2,0c-0.2,0.3-0.5,0.4-0.9,0.5     c0.5-0.3-0.5,0,0.1-0.4c-0.3,0-0.6,0.1-0.9,0.2c-0.3,0.1-0.5,0.2-0.7,0.3c-0.3,0.2-0.7,0.2-1.1,0.1c-0.6,0.5,1.2-0.1,0.9,0.1     c0.1,0,0.1,0.1-0.1,0.2c-0.2,0.1-0.5,0.2-0.7,0.2c-0.2,0-0.5,0-0.7-0.1c-0.4-0.1-0.8-0.1-1.2,0c0.1,0,0.1,0,0.2-0.1     c-0.4,0-0.8,0.2-1.3,0.1c-0.1,0.1-0.3,0.1-0.4,0.1c-0.1,0-0.3,0-0.3,0.2c0.4,0,0.7-0.1,1-0.1c-0.7,0.3-1.4,0.4-2.1,0.3     c0.2-0.1,0.4-0.1,0.6-0.2c-0.3-0.1-0.5,0.1-0.8,0c0.1-0.1,0.4-0.1,0.7-0.1c0.4,0,0.8,0,1.1-0.1c-0.3-0.1-1.2,0.2-0.9-0.1     c-0.2,0.2-0.5,0.2-0.8,0.1c-0.2,0-0.3,0-0.5,0c-0.2,0-0.4,0-0.6,0.1l0.1-0.2c-0.2,0.1-0.4,0.1-0.6,0c0.1-0.1,0.3-0.1,0.4-0.2     c-0.3,0-0.6,0-0.9-0.1c-0.3-0.1-0.5-0.2-0.8-0.2c1.2,0.2,0.2,0.3,0.7,0.5c-0.8,0-1-0.2-1.1-0.4c-0.1-0.1-0.2-0.2-0.4-0.3     c-0.3-0.1-0.5-0.2-0.8-0.3c0.2,0,0.8,0.4,0.4,0.3c-0.1-0.1-0.3-0.1-0.5-0.2c-0.1-0.1-0.2-0.2-0.4-0.3c-1-0.3,0.1,0.2-0.4,0.2     c-0.3-0.4-0.5-0.1-1-0.2l0.1-0.2c-0.6-0.3-0.6-0.3-0.8-0.2c-0.1,0.1-0.2,0.1-0.7-0.2h0.6c-0.2-0.1-0.4-0.1-0.6-0.2l0.2-0.1     c-0.2-0.1-0.5-0.2-0.7-0.3c-0.2-0.1-0.3-0.2-0.6-0.4c0.1,0.2-0.3,0.2-0.7-0.1c-0.2-0.3,0.3,0-0.4-0.5c0.3,0,0.5,0.1,0.6,0.4     c0.1,0,0.2,0,0.3,0c-0.3-0.3-0.7-0.6-1-0.8c0.1,0.1,0.2,0.1,0.2,0.2c-0.4-0.2-0.7-0.4-1-0.6c-0.1-0.2,0.1-0.1,0.2-0.1     c-0.2-0.1-0.4-0.2-0.6-0.4c0.2-0.1,0.3-0.2,0.6,0.1c-0.3-0.2-0.6-0.4-0.9-0.6c0-0.1-0.2-0.5-0.1-0.5c-0.3-0.5-1.2-0.9-1.5-1.7     c-0.1,0-0.2-0.1-0.2-0.2c-0.3-0.7-0.7-1.4-1.1-2l0.1-0.6C10.7,29.6,11,31,10.4,30c-0.2-0.4-0.2-0.5-0.1-0.5c0.1,0,0.2,0,0.2-0.2     c-0.5-0.5-0.7-1.1-0.7-1.7C10.4,27.7,10.4,27.9,10.5,28.1z M10.5,19.7c0,0.1,0,0.2,0,0.3c0,0.1,0,0.2-0.1,0.3     C10.2,20,10.3,19.9,10.5,19.7z M19.5,10.8c-0.2,0.1-0.3,0.1-0.5,0.1C19.1,10.9,19.3,10.8,19.5,10.8L19.5,10.8z M18.1,34     C18.1,34,18.1,34,18.1,34C18.5,34.8,18.4,34.5,18.1,34z M17.3,32.7c-0.2,0-0.3,0.2-0.4,0.4c0.3-0.2,0.5,0,0.8,0.3     C17.7,33,17.7,32.7,17.3,32.7z M29.7,46.1l-0.2-0.3C29.9,45.3,29.8,45.7,29.7,46.1z"/>
			<path class="st0" d="M18.1,11.6c0,0-0.1-0.1-0.1-0.1C18,11.5,18,11.6,18.1,11.6z"/>
			<path class="st0" d="M12.7,32.9L12.7,32.9C12.7,32.9,12.8,32.9,12.7,32.9L12.7,32.9z"/>
			<path class="st0" d="M31.2,26.1c0.1-0.1,0.2-0.1,0.3-0.2C31.5,25.9,31.4,25.9,31.2,26.1z"/>
			<path class="st0" d="M11.7,26.9l0.5,0.9c-0.1-0.3-0.1-0.7,0.1-1C12.1,26.9,11.8,27.2,11.7,26.9z"/>
			<path class="st0" d="M18.4,20.5c0,0,0-0.1,0-0.1s0.1-0.1,0-0.1L18,20.1c-0.1,0.1-0.1,0.3,0,0.4c0,0.1,0.1,0.1,0.2,0.1     C18.2,20.6,18.3,20.6,18.4,20.5C18.3,20.5,18.4,20.5,18.4,20.5z"/>
			<path class="st0" d="M15.1,25.1c0.4-0.1,0.6-0.3,0.6-0.5c0-0.2-0.1-0.4-0.3-0.6c0,0,0,0.1,0,0.1c-0.6,0-0.8,0.1-0.8,0.3     C14.7,24.7,14.8,25,15.1,25.1z"/>
			<path class="st0" d="M15.4,23.9c-0.1-0.2-0.1-0.3,0-0.5C14.8,23.4,15.2,23.7,15.4,23.9z"/>
			<path class="st0" d="M15.5,31.8c0-0.4-1.1,0.7-0.9,0.3c-0.6,0.3,0.1,0.5,0.6,0.4c0.2,0,0.5-0.1,0.6-0.2     C16,32.2,15.9,32,15.5,31.8z"/>
			<path class="st0" d="M18,24.1c-0.4,0.1-0.7,0.2-1.1,0.4c0.3,0,0.6,0,0.9,0C17.9,24.4,17.9,24.3,18,24.1z"/>
			<path class="st0" d="M18.3,27.3c0-0.2,0-0.5-0.1-0.7c-0.1,0.1-0.3,0.1-0.4,0C18,27,18,27.5,18.3,27.3z"/>
			<path class="st0" d="M17.8,26.6c0-0.2-0.2-0.4-0.4-0.4C17.5,26.4,17.7,26.5,17.8,26.6z"/>
			<path class="st0" d="M18.2,24.9v0.2l0.1,0.4L18.2,24.9z"/>
			<path class="st0" d="M24.2,31.2c0.3-0.1,0.5-0.2,0.7-0.4c0.1-0.5-0.1-0.8-0.4-0.6C24.4,30.5,24.1,30.7,24.2,31.2z"/>
			<path class="st0" d="M22.6,29.2c0.1,0,0.2,0.1,0.2,0.2l0.1-0.2L22.6,29.2z"/>
			<path class="st0" d="M24.3,29.5c0.1-0.1,0.9-0.1,0.1-0.1C24.3,29.4,23.7,29.4,24.3,29.5z"/>
			<path class="st0" d="M32.3,25.7l-0.1,0.1l0.1,0.1l0.6,0.4l1.4,0.9L33,26.2L32.3,25.7L32.3,25.7z"/>
			<path class="st0" d="M32.2,17.9c0,0.1,0,0.2,0.1,0.3c0,0.1,0.1,0.1,0.1,0.1c0.1,0,0.1,0,0.1,0.4c0.1,0.1,0-0.5,0.1-0.4     c-0.1-0.1-0.1-0.2-0.1-0.3c0-0.1-0.1-0.1-0.1-0.1C32.3,17.8,32.3,17.8,32.2,17.9z"/>
			<path class="st0" d="M32.6,18.2c0,0.1,0.1,0.1,0.1,0.2C32.7,18.4,32.7,18.3,32.6,18.2z"/>
			<path class="st0" d="M48.6,20.9c0-0.2,0-0.3-0.1-0.5c0,0.1,0,0.2,0,0.3L48.6,20.9z"/>
			<path class="st0" d="M48.2,19.9c0.1,0,0.1-0.1,0.1-0.1c-0.1-0.1-0.1-0.2-0.2-0.3C48.2,19.6,48.2,19.8,48.2,19.9z"/>
			<path class="st0" d="M11.4,18.8L11.4,18.8c-0.1,0-0.2,0.1-0.3,0.2C11.2,18.9,11.3,18.8,11.4,18.8z"/>
			<path class="st0" d="M10.1,24.5L10.1,24.5l-0.2,0.1L10.1,24.5z"/>
			<path class="st0" d="M11.4,29.5c-0.1-0.2-0.2-0.4-0.2-0.6C11.3,29.3,11.2,29.6,11.4,29.5z"/>
		</g>
	</g>
	<g transform="translate(33.378 15.419)">
		<path class="st1" d="M23.4,0.1C23.4,0,23.3,0,23.4,0.1C23.3,0.1,23.4,0.1,23.4,0.1z"/>
		<path class="st1" d="M23.3,1.2L23.3,1.2c0,0.1,0,0.1,0.1,0.1C23.4,1.3,23.4,1.3,23.3,1.2z"/>
		<path class="st1" d="M23.1,2.3c0.2-0.1,0.2-0.2,0.2-0.3c-0.1-0.1-0.1-0.2,0-0.3l0.1,0l-0.2-0.1C23.1,1.8,23.3,2.1,23.1,2.3z"/>
		<path class="st1" d="M22.1,2.9c0.2-0.1,0.1,0.1,0.1-0.1c0,0,0,0-0.1,0C22.1,2.8,22.1,2.9,22.1,2.9z"/>
		<path class="st1" d="M22.1,2.8C22.1,2.7,21.9,2.9,22.1,2.8z"/>
		<path class="st1" d="M22,3.3l-0.1-0.1c-0.1,0-0.2,0.2-0.3,0.1C21.6,3.4,21.8,3.4,22,3.3z"/>
		<path class="st1" d="M22.3,3.4L22.3,3.4C22.2,3.4,22.2,3.4,22.3,3.4z"/>
		<path class="st1" d="M22.2,3.2c0,0.1,0.1,0.1,0.1,0.1C22.4,3.3,22.6,3.3,22.2,3.2C22.4,3.3,22.3,3.2,22.2,3.2z"/>
		<path class="st1" d="M22.3,3.1C22.5,3,22.6,2.9,22.7,3C22.6,2.8,22.3,2.8,22.3,3.1z"/>
		<path class="st1" d="M23.6,2.3l0.1-0.1l-0.1-0.1C23.6,2.1,23.4,2.3,23.6,2.3z"/>
		<path class="st1" d="M21.3,4.2c0.2,0,0.4,0,0.5-0.1L21.8,4C21.6,4.1,21.5,4.2,21.3,4.2z"/>
		<path class="st1" d="M21.9,4.1l0.2,0.1C22.1,4.1,22,4.1,21.9,4.1z"/>
		<path class="st1" d="M22.9,3.4c-0.1-0.1-0.2-0.2-0.3-0.2C22.7,3.2,22.8,3.3,22.9,3.4L22.9,3.4z"/>
		<path class="st1" d="M21.1,4.7l-0.3-0.1l0.4,0.1L21.1,4.7z"/>
		<path class="st1" d="M20.9,5.1c-0.3-0.1-0.6,0.1-0.7,0c0,0.1,0.2,0.2,0.4,0.3C20.5,5.3,20.6,5.2,20.9,5.1z"/>
		<path class="st1" d="M20.9,5.5c-0.1,0-0.2-0.1-0.3-0.1C20.7,5.4,20.8,5.5,20.9,5.5z"/>
		<path class="st1" d="M21.9,4.5c-0.2,0-0.3,0-0.4,0.1L21.9,4.5C21.9,4.5,21.9,4.5,21.9,4.5z"/>
		<path class="st1" d="M21.9,4.6L21.9,4.6c-0.1,0.1-0.1,0.1-0.1,0.1C21.8,4.7,21.8,4.6,21.9,4.6z"/>
		<path class="st1" d="M21.9,4.5"/>
		<path class="st1" d="M22.6,3.8c0.2,0.1,0.4,0.3,0.7,0.1C23,3.8,22.8,4,22.6,3.8z"/>
		<path class="st1" d="M22.4,4.4l0.1-0.2c-0.1,0-0.2,0-0.4,0L22.4,4.4z"/>
		<path class="st1" d="M22.5,4.5L22.5,4.5l-0.1,0L22.5,4.5z"/>
		<path class="st1" d="M21.5,5.2c0.2,0.1,0.1,0.1,0.2,0.2c0.1-0.1,0.2-0.2,0.2-0.3C21.7,5.2,21.5,5.2,21.5,5.2z"/>
		<path class="st1" d="M21.7,4.9"/>
		<path class="st1" d="M21.3,6.3L21.3,6.3z"/>
		<path class="st1" d="M21.9,5.2c0.1-0.1,0-0.1-0.1-0.1C21.8,5.1,21.8,5.2,21.9,5.2C21.9,5.2,22,5.2,21.9,5.2z"/>
		<path class="st1" d="M21.1,5.7c0.1,0,0.2-0.1,0.3-0.1C21.2,5.7,20.9,5.7,21.1,5.7z"/>
		<path class="st1" d="M21.6,5L21.6,5C21.5,5,21.6,5,21.6,5z"/>
		<path class="st1" d="M21.6,5C21.7,5,21.8,5,21.8,5c0,0-0.1-0.1-0.1-0.1C21.7,4.9,21.7,5,21.6,5z"/>
		<path class="st1" d="M24.2,6.7c-0.1,0,0-0.1-0.2-0.1c0,0-0.1-0.1-0.1-0.1c0,0,0,0,0.1-0.1c0,0,0,0,0.1,0c0,0,0,0,0.1,0v0h0    c0,0-0.1,0-0.1,0c-0.1,0-0.2,0-0.3,0c-0.2,0-0.5,0-0.7,0c-0.5,0-1.1,0.1-1.6,0.1c0.2,0,0.4,0.1,0.6,0.2c0.3,0,0.7-0.3,1.1-0.2    c0.2,0.2-0.2,0.2-0.5,0.3c0.3,0,0.5,0,0.8,0.1c0.1,0,0.3,0.1,0.4,0.1c0.1,0,0.2,0,0.3,0h0.1L24.2,6.7L24.2,6.7l-0.1-0.1L24.2,6.7    L24.2,6.7C24.2,6.7,24.2,6.7,24.2,6.7z"/>
		<path class="st1" d="M21.6,6L21.6,6c-0.3,0-0.5,0.1-0.7,0.1c0.1,0.1,0.3,0.1,0.5,0.1L21.6,6L21.6,6z"/>
		<path class="st1" d="M21.6,5.6c0.4,0.1,0.8,0.2,1.1,0.1c0-0.2-0.4-0.1-0.6-0.3C22.3,5.8,22,5.4,21.6,5.6c0-0.1,0-0.1,0-0.2    c-0.1,0.1-0.2,0.1-0.3,0.1h0c0.1,0,0.1,0,0.1,0l0,0C21.5,5.6,21.6,5.6,21.6,5.6c-0.1,0.1-0.1,0-0.2,0h-0.1l0.1,0.3    C21.6,5.9,21.6,5.8,21.6,5.6z"/>
		<path class="st1" d="M24,4L24,4C24,4,24,4,24,4z"/>
		<path class="st1" d="M23.8,4.2c-0.1,0-0.2,0-0.1-0.1c0.1-0.1,0.2,0,0.3,0c-0.1-0.1-0.3-0.1-0.4,0l0.1,0c-0.2,0.2-0.4,0.3-0.7,0.3    C23.2,4.3,23.5,4.2,23.8,4.2z"/>
		<path class="st1" d="M22.9,4.9l0.2,0.3L23.5,5h-0.2C23.4,4.9,23.1,5,22.9,4.9z"/>
		<path class="st1" d="M21.1,6.3l-0.5-0.1l0.7,0.2L21.1,6.3z"/>
		<path class="st1" d="M21,6.6l-0.5,0l0.2,0.1L21,6.6z"/>
		<path class="st1" d="M17,25.5L17,25.5C16.9,25.6,16.9,25.5,17,25.5z"/>
		<path class="st1" d="M17.3,25L17.3,25C17.3,25,17.3,25.1,17.3,25z"/>
		<path class="st1" d="M17.8,13.7c-0.7-0.1-1.8-0.5-1-0.2l0.8,0.3C17.5,13.7,17.7,13.7,17.8,13.7z"/>
		<path class="st1" d="M19.8,20.8L19.8,20.8C19.8,20.8,19.8,20.8,19.8,20.8l-0.1-0.1l-0.1-0.1c-0.1,0-0.1-0.1-0.2-0.1    C19.6,20.6,19.9,20.8,19.8,20.8z"/>
		<path class="st1" d="M20.1,21.1L20,21.2C20,21.2,20,21.2,20.1,21.1z"/>
		<path class="st1" d="M14.7,27.9V28C14.8,27.9,14.7,27.9,14.7,27.9z"/>
		<path class="st1" d="M20,9.8c-0.2,0-0.3,0-0.5,0.1C19.9,9.9,20.5,9.9,20,9.8z"/>
		<path class="st1" d="M13.2,21.8c0.1,0.2,0.2,0.3,0.4,0.4C13.5,22.1,13.4,22,13.2,21.8z"/>
		<path class="st1" d="M19.3,10.1h0.2c-0.1-0.1-0.1-0.1-0.1-0.2C19.1,9.9,18.9,10,19.3,10.1z"/>
		<path class="st1" d="M4.4,33.6"/>
		<path class="st1" d="M0.9,33.5c0,0,0.1-0.1,0.1-0.1C1,33.4,0.9,33.4,0.9,33.5z"/>
		<path class="st1" d="M20.3,7.8C20.3,7.8,20.2,7.8,20.3,7.8z"/>
		<path class="st1" d="M22.7,7.7c0.1,0,0.2,0,0.3,0.1C22.9,7.8,22.8,7.8,22.7,7.7z"/>
		<path class="st1" d="M23.5,11.7"/>
		<path class="st1" d="M20.6,7.8c-0.1,0-0.1,0-0.2,0.1C20.4,7.8,20.5,7.8,20.6,7.8z"/>
		<path class="st1" d="M20.3,7.8C20.3,7.7,20.3,7.7,20.3,7.8C20.3,7.7,20.2,7.7,20.3,7.8z"/>
		<path class="st1" d="M20.3,7.9c0,0,0.1-0.1,0.1-0.1L20.3,7.9C20.3,7.9,20.2,7.9,20.3,7.9z"/>
		<path class="st1" d="M10.1,30.8L10.1,30.8C10,30.9,10,30.9,10.1,30.8z"/>
		<path class="st1" d="M22.1,17.4"/>
		<path class="st1" d="M22.1,17.7c-0.1-0.1,0-0.2,0-0.3l-0.3,0L22.1,17.7z"/>
		<path class="st1" d="M16,26.5l0.2-0.1c-0.1,0.3-0.2,0.4,0,0.3c-0.2-0.2,0.5-0.6,0.3-0.8l0.1-0.1L16.6,26c0.3-0.1,0-0.3,0.2-0.5    c0.1-0.1,0.2-0.1,0.1,0l0.1-0.2c0.1-0.1,0.1,0,0,0.1l0.2-0.3l0,0c0-0.1,0-0.2,0-0.3c0.1,0,0,0.1,0,0.1l0.1-0.2    c0.1,0,0.1,0.2,0,0.3c0.4,0.1,0.1-0.2,0.5-0.4l-0.1,0.2c0.2,0,0.3-0.1,0.5-0.3c-0.1,0-0.5,0.2-0.4-0.1c0.1,0,0.1-0.1,0.1-0.2    c0.1,0.1,0.1,0,0.2-0.2l0.1,0.1c0.1-0.1,0-0.2,0-0.3c0.1-0.1,0.2-0.1,0.4-0.1c0.2-0.2-0.3,0.1-0.1-0.2c0.2-0.2,0.3-0.4,0.3-0.6    c0.1-0.1,0.1,0.1,0.1,0.1v-0.2c0,0,0.1,0,0.1,0c0-0.1-0.1-0.1,0-0.3c-0.1-0.1,0.4-0.2,0.4-0.5c0.1,0,0.1,0.1,0.1,0.1    c0.1-0.2,0.1-0.4,0.1-0.6l0.2-0.1c-0.2,0.1-0.2-0.2-0.2-0.4h0c0,0,0,0-0.1,0l-0.1,0c-0.1-0.1-0.2-0.1-0.3-0.1    c-0.1-0.1-0.3-0.1-0.4-0.2c-0.1-0.2-0.3-0.4-0.5-0.6c0.4,0.2,0.7,0.4,1,0.7c-0.1-0.1-0.2-0.1-0.2-0.2c0.1,0,0.3,0.1,0.4,0.2    c0.1,0,0.1,0.1,0.2,0.1l0.1,0l0,0c0,0,0.1,0.1,0.1,0.1c-0.1,0-0.1,0-0.1,0.1c0,0.1,0.1,0.2,0.2,0.3c0,0,0-0.1,0-0.1c0,0,0,0,0,0.1    c0,0,0-0.1,0-0.1l0.2,0l-0.1-0.1l0.3-0.3c-0.1-0.4,0-0.7,0.1-1.1c0.1,0.1,0.2,0.1,0.3,0.2c-0.2,0-0.1,0.4-0.3,0.5    c0.1-0.1,0.1,0,0.1,0l0.1-0.4c0.1,0.1,0.1,0,0.2-0.1c-0.2,0,0-0.4,0-0.5c0.1,0,0.1,0.1,0,0.3c0.3-0.1-0.1-0.4,0.1-0.5    c0,0.1-0.1,0.1,0,0.1c0-0.1,0.2-0.4,0.2-0.3l0,0.1c0.2-0.3,0.4-0.9,0.3-1.1c0.1,0,0.2,0.1,0.2,0.2l-0.2-0.4l0-0.1l0-0.1l-0.3-0.2    L20,16.4c0.3,0.1,0.8,0.4,1.3,0.6c0.1,0.1,0.2,0.1,0.4,0.1h0.1l0.1,0c0.1,0.1,0.2,0.1,0.2,0.3c0.1-0.1,0.1-0.2,0.1-0.3    c0,0-0.3,0-0.3,0c0.1-0.1,0.3-0.2,0.4-0.3c-0.1,0.1-0.3-0.1-0.2-0.2c0,0,0.2,0.1,0.2,0.1l-0.1-0.4c0,0.1,0.2,0.1,0.3,0.1    c-0.1,0,0.1-0.3,0.1-0.4l-0.1,0.1c0.2-0.3-0.2-0.5-0.1-0.8c0,0.1,0.3,0.2,0.4,0.1c-0.1-0.1-0.1-0.2-0.3-0.4l0,0c0,0,0,0,0,0    c0,0,0,0,0,0l-0.1,0l-0.1-0.1c-0.1-0.1-0.3-0.1-0.4-0.2c-0.3-0.1-0.5-0.3-0.8-0.4c-0.3-0.2-0.7-0.3-1-0.6l0.6,0.1l-0.6-0.4    c0.4,0.1,0.9,0.4,1.4,0.6c0.3,0.1,0.5,0.2,0.8,0.4l0.2,0.1l0.1,0.1c0,0,0,0,0,0l0,0l0,0.1c0.1,0.2,0.2,0.3,0.2,0.5    c0.1-0.1,0.1,0,0.1-0.2c0.1-0.1,0.1,0.1,0.1,0.2l0.2-0.4c-0.1,0,0-0.4-0.1-0.4v0.6c-0.1,0-0.3-0.4-0.2-0.7    c0.1-0.1,0.2,0.1,0.3,0.1c0-0.1,0-0.2,0-0.4l0,0.2c0.1-0.2-0.1-0.4,0.1-0.5c0-0.1,0.2-0.2,0.2-0.2c-0.1,0-0.3,0-0.4,0h-0.1    c-0.1,0-0.2-0.1-0.2-0.1c-0.3-0.1-0.6-0.2-0.9-0.3c-0.6-0.1-1-0.3-1.2-0.4c0.1,0,1.4,0,2.1,0.1c0.1,0,0.3,0.1,0.4,0.1    c0,0,0,0,0.1,0l0.1,0.1c0.1,0.1,0.1,0.1,0.2,0.1c0,0-0.1-0.1-0.1-0.1c0.1-0.1,0.1,0.1,0.1-0.1c-0.1-0.1,0.1-0.4-0.1-0.1    c0-0.2,0.1-0.2,0.1-0.4c-0.1,0-0.1,0-0.2-0.1c0,0,0,0,0-0.1v0c0,0-0.1,0-0.1,0l-0.2-0.1c-0.2-0.1-0.3-0.1-0.4-0.2    c0.1,0,0.3,0.1,0.5,0.1c0.1,0,0.1,0,0.2,0h0.1c0.1-0.4,0.2-0.5,0.2-0.9c0,0,0.1-0.2,0.1-0.1c0-0.1-0.1-0.1,0-0.2    c0.1-0.2,0,0.2,0.1,0.1c-0.1,0-0.1-0.3-0.1-0.4c-0.1,0-0.1,0.3-0.1,0.5c0,0-0.1,0-0.1-0.1l0,0v0l-0.1,0c-0.1-0.1-0.3-0.1-0.4-0.1    c-0.5-0.2-0.9-0.4-1.3-0.6c-0.3-0.3,0.9,0,0.7-0.1c0.3-0.5-2.1-0.7-1.1-1c0.7,0,1.4,0.1,2.2,0.2C23.8,9.3,23,9.3,23,9.5l0.4-0.1    c0.3,0.1,0.4,0.3,0.2,0.3c0.1,0,0.2,0,0.2-0.1c0,0,0-0.1,0-0.1c0-0.1,0-0.2,0.1-0.3C24,8.9,24,8.6,24.1,8.4c0,0,0-0.1,0-0.1v0    l-0.1,0c-0.1,0-0.1,0-0.2,0l0.1,0.1c-0.6,0.1-0.8-0.3-1.1-0.2c-0.4-0.2-1-0.4-0.6-0.6l0.8,0c-0.2,0-0.5,0.1-0.3,0.2    c-0.2-0.1,0.1-0.1,0.3-0.2s0.3-0.1-0.2-0.2l-0.6,0.1c-0.4-0.2-1.1-0.4-0.8-0.6C20.6,7,21.5,7,20.5,7C21.1,7,21,7.1,21,7.3    s-0.1,0.2,0.6,0.2C20.4,7.5,21,7.6,20,7.7c0.3,0,0.6,0,0.4,0.1c0.1,0,0.2,0,0.2,0.1l0,0c0.1,0,0.3,0,0.4,0    c0.6,0.1,0.5,0.4,0.8,0.5c-0.1,0.1-0.3-0.1-0.6-0.1l0.5,0.2c-0.6-0.1-1.1,0.1-1.4-0.1c0,0.1-0.1,0.1-0.1,0.2    c-0.4,0.1-0.6,0.2-0.4,0.3c-0.2,0.1,0.6,0.3,0.1,0.2l0.3,0.4l-0.2,0c-0.2,0.3,0.9,0.8-0.5,0.9c0.1,0.1,0.3,0.3,0.1,0.4l-0.6-0.1    c0.1,0.1-0.1,0.1-0.3,0.2c-0.1,0.1-0.2,0.1,0.1,0.2c-0.9-0.1-1.1,0-1.1,0.1s0.2,0.4,0,0.4l0.9,0.2c-0.1,0.1,0.1,0.3,0.3,0.6    l0.8,0.2c0.6,0.4-0.7,0.2-0.8,0.5c-0.3-0.1-0.2-0.1,0-0.1c-1-0.1-0.7,0.1-0.4,0.4s0.7,0.6,0,0.5c0.3,0.2,0.1,0.2-0.1,0.1    c0,0,0,0,0,0c0,0,0,0,0,0c-0.2,0-0.3-0.1-0.5-0.1c0.2,0,0.3,0.1,0.5,0.1c0,0.1,0.1,0.2,0.2,0.3l-0.9-0.3l0,0    c-0.4-0.1,0.4,0.2,1.1,0.4c0.1,0.1,0.3,0.2,0.5,0.3c-1.4-0.5,0.4,0.4-1.2-0.1c0.7,0.4,0.4,0.6,1.9,1.3c-0.2-0.1-0.3-0.1-0.3-0.1    c-0.2,0-0.4,0,0,0.3l-1.1-0.4l1.4,0.9c-0.7-0.1-1.4-0.4-2-0.8c1.2,0.9,0.4,0.4,1.6,1.3l-0.7-0.4c0,0.1,0.9,0.7,0.3,0.4    c-0.7-0.2-0.9,0-1.1,0.2s-0.4,0.5-1.1,0.4c2.2,1.1-1.1-0.3,0.6,0.6c-0.4-0.2-0.9-0.4-1.2-0.7c0.4,0.5-1-0.1,0.3,0.8    c-0.5-0.3-0.7-0.5-1-0.6c0.1,0.1,0.4,0.3,0.1,0.2c-0.2-0.1-0.4-0.3-0.6-0.4c-0.1,0.3,1.5,1.2,2.9,2.1c-0.8-0.3-0.7-0.2,0.2,0.5    c-0.5-0.2-1-0.5-1.1-0.7c-0.1,0-1,0,0.1,0.8c-0.3-0.2-0.1,0.1,0,0.2c-0.2,0.1-0.3,0.1-0.3,0.3l0.2,0.1c1.3,1,0.2,0.4,0.3,0.6    l-0.1-0.1c-1.2-0.4,0.4,0.5-1,0l0.8,0.6c0.9,0.6,0.6,0.6,0.1,0.4s-1.1-0.5-0.8-0.1l0.5,0.3c0.5,0.6-2.6-1.5-2.8-1.6    c-0.2-0.1-0.2-0.2-0.3-0.3c-1.2-0.6,1,0.9,1.1,1.2c-0.6-0.4-1.4-1.2-1.6-1.2c-0.2-0.1,0.1,0.3,0.4,0.7c0.3,0.4,0.5,0.8-0.1,0.4    c0.4,0.3,0.8,0.6,1.1,1c0,0.3-1.8-1-0.6,0.2c-0.1-0.1-0.2-0.2-0.3-0.3c0.2,0.5,0.5,1,0.9,1.5c-1.3-1.1-1.1-0.7-0.9-0.2    s0.4,0.9-0.7-0.2l-0.1,0.4l-0.2-0.2c-0.3,0,0.1,0.6,0.6,1.2c-0.2-0.1-0.3-0.3-0.5-0.5c-0.7-0.2-0.6-0.1,0.2,1.3L12.1,25    c0.2,0.2-0.2,0.1-0.5-0.1c-0.3-0.1-0.6-0.1-0.4,0.4C11.1,25.2,11,25.1,11,25c0.2,0.6-0.4,0.3-0.7,0.1s-0.5-0.1,0.4,1.3    c0.1,0.3,0.2,0.6,0.3,0.9c0.4,0,0.8,1.2,1.3,1.5c0,0.2-0.9-0.6-0.9-0.8l0.1,0.1c-1-1.4-0.7-0.2-1.4-1.1c-0.3,0.2-0.6,0.4-1,0.4    c-0.4,0-0.7,0.1-1,0.3l0.7,1l-0.2,0.1c-0.2-0.2-0.5-0.7-0.4-0.8c-0.4-0.5,0.1,0.7,0.2,0.9c-0.2-0.1-0.4-0.4-0.5-0.7    c-0.1-0.3-0.1-0.5-0.2-0.5c0,0.1,0,0.1-0.1,0.2l0.1,0.1c0.1,0.5,0.4,0.9,0.2,1c-0.2-0.1-0.4-0.6-0.4-0.6c0-0.1-0.1-0.1-0.1,0    l-0.3,0.1l0.5,0.7C7.8,29.6,7.4,29.2,8,30c-0.4-0.6-0.7-0.5-0.9-0.4c-0.2,0.1-0.4,0.4-0.5,0.3c0.1,0.6-0.1,0.7-0.3,0.8    c0.1,0.1,0.5,0.9,0.3,0.9C5.9,30,6,31.1,5.3,30.1c0.4,0.6-0.4,0.5,0.2,1.4c-0.2,0-0.2-0.5-0.5-0.8c0,0.4-0.3,0.4-0.5,0.4    s-0.5,0-0.6,0.2c0.1,0.2,0.2,0.4,0.2,0.7l-0.5-0.6c-0.1,0.1,0.2,0.9-0.1,0.5c0.1,0.1,0.1,0.3,0.1,0.4c-0.5-0.1-0.9,0.4-1.3,0.6    c-0.2,0.2-0.4,0.3-0.7,0.4c-0.2,0.1-0.5,0.1-0.7,0.1c0.1,0,0.1,0.1,0,0.2c0.1,0,0,0.1,0.1,0.2c-0.1,0-0.3,0-0.4,0    c0,0.1-0.1,0.2-0.2,0.2c-0.1,0.1-0.2,0.1-0.2,0.2l0.1-0.1c-0.1,0.1,0,0.1,0.1,0.2c0.1,0.1,0.2,0.1,0.2,0.1    c0.2-0.1,0.6,0.1,0.9-0.1c0.1,0-0.1,0.1,0,0.1c0.1-0.1,0.2-0.1,0.4-0.1l0,0c0.4-0.1,0.9-0.2,1.3-0.2L3,34.1c0.1,0,0.1,0,0.2,0    C3.3,34,2.9,34.2,3,34.1c0.2,0.1,0.9-0.3,1-0.1c0.2-0.1-0.1-0.1,0.1-0.1l0.1,0l0-0.1c0.1,0,0.2,0,0.2,0.1c0,0-0.1,0-0.1,0.1    c0.2,0,0.4-0.2,0.5-0.2l-0.2,0c0.3-0.1,0.5-0.2,0.8-0.3c0.1-0.1,0.3-0.1,0.4-0.1c0.1-0.1,0.2-0.1,0.4-0.2l-0.1,0    c0.3-0.2,0.3-0.1,0.7-0.3v0C7,32.8,7,32.7,7.1,32.7c-0.1,0.1,0.2,0,0.1,0.1c0.4-0.3,0.2-0.1,0.4-0.4l0.1,0c0-0.1,0.1-0.2,0.2-0.2    c-0.1,0.1,0.2,0,0,0.2c0.5-0.1,0.5-0.4,0.8-0.3c0.1-0.3-0.4,0.1-0.3,0c-0.1,0,0.1-0.2,0.2-0.3s0.4,0.1,0.7-0.1l-0.1,0.1    c0.1,0,0.2-0.2,0.4-0.2c0-0.1,0.2-0.1,0.1-0.3c-0.1,0.1-0.2,0.1-0.3,0.2c0.1-0.1,0.2-0.4,0.5-0.5c0,0.1-0.1,0.1-0.1,0.2    c0.1,0,0.1-0.1,0.2-0.1c0.1,0.1-0.3,0.2-0.4,0.4c0.1,0,0.3-0.3,0.3-0.1c0-0.3,0.3-0.2,0.4-0.4l0,0.1c0,0,0.1-0.1,0.1-0.1l0,0.2    c0.1-0.2,0.4-0.1,0.5-0.3c-0.4,0.2-0.1-0.1-0.3,0c0.4-0.4,0.4,0.1,0.8-0.3c-0.1,0.1-0.3,0.1-0.2,0c0.1,0,0.2-0.1,0.3-0.1    c0.3-0.2-0.1-0.1,0-0.2c0.2,0,0.1-0.1,0.2-0.3l0.1,0.1c0.4-0.2,0-0.2,0.3-0.4l0,0.2l0.1-0.1l0,0.1c0.1-0.2,0.2-0.3,0.4-0.3    c-0.1,0-0.1-0.2,0.1-0.3c0.1,0,0,0.1,0.2-0.1c0,0.1,0,0.2-0.1,0.2v0.1c0.1-0.1,0.3-0.1,0.4-0.3c0,0-0.1,0-0.1,0    c0.1-0.1,0.1-0.2,0.2-0.4c0.1,0,0.1,0.1,0,0.1c0.1-0.1,0.1-0.1,0.1-0.2c0,0.1,0.1,0.1,0,0.3l0.2-0.3c0,0,0.2,0,0.2,0    c0.2-0.1,0.3-0.4,0.5-0.6c0,0,0-0.1,0.1-0.1c0.2-0.1,0.4-0.2,0.6-0.5h0.2c0.1-0.2-0.3,0-0.1-0.3c0.2-0.2,0.2,0,0.3,0    c0.1-0.1,0.1-0.4,0.4-0.5C16.1,26.4,16,26.5,16,26.5z M17.9,24.3c0,0.1,0,0.2-0.1,0.2C17.7,24.4,17.8,24.4,17.9,24.3L17.9,24.3z     M20.2,20.6c0,0.1,0,0.1-0.1,0.1C20.1,20.7,20.1,20.6,20.2,20.6L20.2,20.6z M20.5,8.6L20.5,8.6C20.2,8.7,20.4,8.7,20.5,8.6    L20.5,8.6z M20.9,8.4c-0.1,0-0.2,0-0.3-0.1c0.2,0,0.2,0.1,0.1,0.1C20.9,8.5,21,8.5,20.9,8.4L20.9,8.4z M7.8,28.4l0.1,0.1    C7.9,28.8,7.8,28.6,7.8,28.4z"/>
		<path class="st1" d="M20.1,21.1L20.1,21.1C20,21.1,20,21.1,20.1,21.1z"/>
		<path class="st1" d="M14.7,27.8"/>
		<path class="st1" d="M23.6,12.8C23.6,12.9,23.6,12.9,23.6,12.8C23.6,12.9,23.6,12.9,23.6,12.8z"/>
		<path class="st1" d="M20.3,7.2l0.1,0.1c0-0.1,0.1-0.1,0.3-0.1C20.5,7.2,20.3,7.2,20.3,7.2z"/>
		<path class="st1" d="M24.2,6L24.2,6C24.2,6,24.2,6,24.2,6C24.1,6,24.1,6,24.2,6L23.9,6C23.9,6,23.9,6,24,6.1L24.2,6    C24.1,6.1,24.1,6.1,24.2,6L24.2,6z"/>
		<path class="st1" d="M22.4,7.2c0.5,0,0.4-0.1,0.3-0.2v0C22,6.9,22.2,7,22.4,7.2z"/>
		<path class="st1" d="M22.7,6.9C22.6,6.9,22.6,6.9,22.7,6.9C22.7,6.8,22.7,6.8,22.7,6.9C22.4,6.8,22.6,6.9,22.7,6.9z"/>
		<path class="st1" d="M20.6,8.1c0.2,0-0.7-0.1-0.5-0.1C19.5,7.9,20.9,8.4,20.6,8.1z"/>
		<path class="st1" d="M24.1,7.2h-0.6L24,7.3L24.1,7.2z"/>
		<path class="st1" d="M23.5,8l0.2-0.2c-0.1,0-0.2,0-0.2-0.1C23.5,7.9,23.3,8,23.5,8z"/>
		<path class="st1" d="M23.5,7.8c0-0.1,0-0.1-0.1-0.1C23.4,7.7,23.5,7.8,23.5,7.8z"/>
		<path class="st1" d="M24.1,7.4L24.1,7.4l0,0.2L24.1,7.4z"/>
		<path class="st1" d="M23.1,9.9l0.2,0.2c0.3,0.1,0.4,0,0.4-0.1C23.4,10,23.2,10,23.1,9.9z"/>
		<path class="st1" d="M24.1,9.5C24,9.6,24,9.6,24.1,9.5l0,0.1L24.1,9.5z"/>
		<path class="st1" d="M24,10.1C24,10.1,24.1,10.4,24,10.1C24.1,10.1,24.1,9.9,24,10.1z"/>
		<path class="st1" d="M23.2,13L23.2,13L23.2,13l-0.5-0.2l-0.9-0.2l0.9,0.3L23.2,13L23.2,13z"/>
		<path class="st1" d="M22.9,15.8c0.1-0.2-0.1-0.1,0-0.3c0-0.1-0.1,0.1-0.1,0.1C22.8,15.7,22.8,15.8,22.9,15.8z"/>
		<path class="st1" d="M22.8,15.6L22.8,15.6z"/>
		<path class="st1" d="M0.4,33.7c-0.1,0-0.1,0.1-0.1,0.1L0.4,33.7L0.4,33.7z"/>
		<path class="st1" d="M0.1,34.1L0.1,34.1c-0.1,0-0.1,0-0.1,0.1C0,34.1,0.1,34,0.1,34.1z"/>
		<path class="st1" d="M18.4,24.2L18.4,24.2c-0.1,0-0.1,0-0.1,0.1L18.4,24.2z"/>
		<path class="st1" d="M16.9,25.7L16.9,25.7l-0.1-0.1L16.9,25.7z"/>
		<path class="st1" d="M15.8,27.1c0.1-0.1,0.1-0.1,0.1-0.2C15.8,27.1,15.7,27,15.8,27.1z"/>
	</g>
	<g transform="translate(46.366 9.375)">
		<path class="st1" d="M0,0.9C0,0.9,0,1,0,0.9C0,1,0,0.9,0,0.9z"/>
		<path class="st1" d="M0.4,1.1L0.4,1.1C0.4,1.2,0.4,1.1,0.4,1.1C0.4,1.1,0.4,1.1,0.4,1.1z"/>
		<path class="st1" d="M0.7,1.4c0-0.2-0.1-0.2-0.1-0.2s-0.1,0.1-0.1,0l0-0.1v0.2C0.5,1.4,0.6,1.3,0.7,1.4z"/>
		<path class="st1" d="M0.9,2.5c0-0.2,0-0.1,0-0.1L0.9,2.5C0.9,2.5,0.9,2.5,0.9,2.5z"/>
		<path class="st1" d="M0.9,2.5C0.8,2.4,0.9,2.7,0.9,2.5z"/>
		<path class="st1" d="M1,2.6l0,0.1C1,2.8,1,2.9,1,3C1,3,1,2.9,1,2.6z"/>
		<path class="st1" d="M1,2.3L1,2.3C1,2.4,1,2.4,1,2.3z"/>
		<path class="st1" d="M1,2.4L1,2.4C1,2.3,1,2.1,1,2.4C1,2.2,1,2.4,1,2.4z"/>
		<path class="st1" d="M0.9,2.3c0-0.1,0-0.2,0-0.4C0.8,1.9,0.9,2.3,0.9,2.3z"/>
		<path class="st1" d="M0.7,1l0-0.1L0.7,1C0.6,0.9,0.7,1.1,0.7,1z"/>
		<path class="st1" d="M1.3,3.3c0-0.1,0-0.4,0-0.5l0,0.1C1.2,3.1,1.3,3.2,1.3,3.3z"/>
		<path class="st1" d="M1.2,2.8l0-0.2C1.2,2.5,1.2,2.7,1.2,2.8z"/>
		<path class="st1" d="M1,1.7L0.9,2C1,1.9,1,1.8,1,1.7z"/>
		<path class="st1" d="M1.4,3.7L1.4,3.7z"/>
		<path class="st1" d="M1.5,3.7c0,0.3,0,0.5,0,0.7c0,0,0-0.2,0.1-0.4C1.5,4.1,1.5,4,1.5,3.7z"/>
		<path class="st1" d="M1.6,3.7c0,0.1,0,0.2,0,0.3C1.6,3.9,1.6,3.8,1.6,3.7z"/>
		<path class="st1" d="M1.3,2.8c0,0.1,0,0.3,0,0.4L1.3,2.8z"/>
		<path class="st1" d="M1.3,2.8L1.3,2.8C1.4,2.9,1.4,2.9,1.3,2.8C1.3,2.9,1.3,2.8,1.3,2.8z"/>
		<path class="st1" d="M1.3,2.8"/>
		<path class="st1" d="M1.1,2.1c0-0.2,0-0.5,0-0.7C1.1,1.7,1.1,1.9,1.1,2.1z"/>
		<path class="st1" d="M1.3,2.3L1.2,2.1c0,0.1,0,0.2,0,0.4L1.3,2.3z"/>
		<path class="st1" d="M1.3,2.2L1.3,2.2z"/>
		<path class="st1" d="M1.5,3.2c0-0.2,0-0.1,0.1-0.1c0-0.1,0-0.2-0.1-0.2C1.5,3,1.5,3.2,1.5,3.2z"/>
		<path class="st1" d="M1.4,3"/>
		<path class="st1" d="M1.8,3.3L1.8,3.3z"/>
		<path class="st1" d="M1.5,2.7c0-0.1,0,0,0,0.1C1.5,2.8,1.5,2.8,1.5,2.7L1.5,2.7C1.5,2.8,1.5,2.7,1.5,2.7z"/>
		<path class="st1" d="M1.7,3.6c0-0.1,0-0.2,0-0.3C1.6,3.5,1.6,3.7,1.7,3.6z"/>
		<path class="st1" d="M1.4,3.1L1.4,3.1C1.5,3.2,1.5,3.2,1.4,3.1z"/>
		<path class="st1" d="M1.4,3.1c0-0.1,0-0.2,0-0.2c0,0,0,0.1,0,0.1V3.1z"/>
		<path class="st1" d="M1.9,0.5c0,0.1,0,0,0,0.2c0,0.1,0,0.1,0,0.1c0,0,0,0,0-0.1L1.9,0.5L1.9,0.5L1.8,1.6c0,0.5,0,1.1,0,1.6    c0-0.2,0-0.4,0.1-0.6c0-0.4-0.1-0.7-0.1-1.1C1.9,1.4,1.9,1.7,1.9,2c0-0.3,0-0.5,0-0.8c0-0.1,0-0.3,0-0.4L1.9,0.5L1.9,0.5L1.9,0.5    L1.9,0.5L1.9,0.5z"/>
		<path class="st1" d="M1.7,3.1L1.7,3.1c0,0.3,0,0.5,0,0.7c0-0.2,0-0.3,0-0.5L1.7,3.1L1.7,3.1z"/>
		<path class="st1" d="M1.6,3.1c0-0.4,0.1-0.6,0-1.2c-0.1,0,0,0.4-0.1,0.5C1.7,2.4,1.6,2.7,1.6,3.1L1.6,3.1c0,0.1,0,0.2,0,0.3v0l0,0    V3.2l0,0C1.6,3.2,1.6,3.1,1.6,3.1c0,0.1,0,0.1,0,0.2v0.1l0,0C1.7,3.2,1.7,3.2,1.6,3.1C1.7,3.1,1.7,3,1.6,3.1z"/>
		<path class="st1" d="M1.1,0.7L1.1,0.7z"/>
		<path class="st1" d="M1.2,0.9c0,0.1,0,0.2,0,0.1c0-0.1,0-0.2,0-0.3c0,0.1,0,0.3,0,0.4V1.1c0.1,0.2,0.1,0.5,0.1,0.7    C1.2,1.5,1.2,1.2,1.2,0.9z"/>
		<path class="st1" d="M1.4,1.8l0.1-0.2L1.4,1.2v0.2C1.4,1.3,1.4,1.6,1.4,1.8z"/>
		<path class="st1" d="M1.8,3.6v0.5l0-0.7L1.8,3.6z"/>
		<path class="st1" d="M1.9,3.7v0.5l0-0.3L1.9,3.7z"/>
		<path class="st1" d="M7.7,1.4L7.7,1.4z"/>
		<path class="st1" d="M7.6,1.3L7.6,1.3C7.6,1.3,7.6,1.3,7.6,1.3C7.6,1.3,7.6,1.3,7.6,1.3z"/>
		<path class="st1" d="M3.5,5.5c-0.1,0.7-0.3,1.9-0.1,1l0.2-0.8C3.4,5.8,3.4,5.7,3.5,5.5z"/>
		<path class="st1" d="M6.1,1.2L6.1,1.2C6.1,1.2,6.1,1.2,6.1,1.2C6,1.4,6,1.5,5.9,1.6C6,1.4,6.1,1.2,6.1,1.2z"/>
		<path class="st1" d="M6.2,0.8L6.2,0.8C6.3,0.9,6.3,0.8,6.2,0.8z"/>
		<path class="st1" d="M8.6,1.8L8.6,1.8C8.7,1.7,8.7,1.8,8.6,1.8z"/>
		<path class="st1" d="M2.6,4.4v0.5C2.7,4.4,2.7,3.8,2.6,4.4z"/>
		<path class="st1" d="M5.2,5.9c0.1-0.1,0.2-0.3,0.3-0.5C5.4,5.6,5.3,5.8,5.2,5.9z"/>
		<path class="st1" d="M2.7,4.9V4.7C2.7,4.8,2.6,4.9,2.7,4.9C2.6,5.2,2.6,5.4,2.7,4.9z"/>
		<path class="st1" d="M10.7,4.7"/>
		<path class="st1" d="M10,5.9C10,5.9,9.9,5.9,10,5.9C10,5.9,10,5.9,10,5.9z"/>
		<path class="st1" d="M2.2,4.3"/>
		<path class="st1" d="M2.2,1.9c0-0.1,0-0.2,0-0.3C2.2,1.8,2.2,1.9,2.2,1.9z"/>
		<path class="st1" d="M3.3,0.6"/>
		<path class="st1" d="M2.2,4L2.2,4z"/>
		<path class="st1" d="M2.1,4.3L2.1,4.3z"/>
		<path class="st1" d="M2.2,4.3C2.2,4.3,2.2,4.3,2.2,4.3C2.2,4.3,2.2,4.3,2.2,4.3z"/>
		<path class="st1" d="M9.6,3.2"/>
		<path class="st1" d="M5.1,0.5"/>
		<path class="st1" d="M5.2,0.4C5.1,0.5,5.1,0.5,5.2,0.4L5.1,0.8L5.2,0.4z"/>
		<path class="st1" d="M8.1,1.6V1.5c0.1-0.1,0.1,0,0.2-0.1C8.1,1.6,8.1,1.2,7.9,1.5V1.4h0c0-0.2-0.1,0.2-0.2,0.1c0,0,0-0.1,0-0.1    c0,0,0,0,0,0l-0.1,0c0,0,0-0.1,0-0.1l-0.1,0l0,0c0,0-0.1,0.1-0.1,0.1c0-0.1,0,0,0-0.1l-0.1,0c0-0.1,0.1-0.1,0.1-0.1    c0.1-0.3-0.1,0-0.1-0.2h0.1c0.1-0.2,0-0.1,0-0.3c0,0.1,0,0.3-0.1,0.4c0,0,0-0.1-0.1,0c0.1-0.1,0-0.1,0-0.1L7.3,1    C7.2,1,7.2,1.1,7.1,1.1c0,0,0-0.1,0-0.2C7.1,0.8,7.1,1.1,7,1.1C7,1,6.9,1,6.8,1.1c0-0.1,0-0.1,0.1-0.1L6.8,1c0,0,0,0,0-0.1    C6.7,1,6.7,1.1,6.7,1.1C6.6,1.3,6.6,0.9,6.5,1c0-0.1,0-0.1,0.1-0.1C6.5,0.9,6.4,1,6.4,1l0-0.1c0,0.1-0.1,0.2-0.2,0.3v0    c0,0,0,0,0,0.1l0,0.1C6.1,1.5,6,1.6,6,1.7C5.9,1.9,5.9,2,5.9,2.2L5.5,2.8C5.6,2.6,5.8,2.2,6,1.6c0,0.1-0.1,0.2-0.1,0.3    c0-0.1,0.1-0.3,0.1-0.4C6,1.4,6,1.4,6.1,1.3l0-0.1l0,0c0,0,0-0.1,0.1-0.1v0.1C6.2,1.1,6.2,1,6.3,0.9l0,0c0,0,0,0,0-0.1s0,0-0.1,0    l0-0.2l0,0.1L6.1,0.6C6,0.8,5.8,1,5.7,1c0.1-0.1,0.1-0.2,0.1-0.3c0,0.1,0.1,0,0.2,0c0,0,0-0.1,0-0.1L5.9,0.7c0-0.1,0-0.1,0-0.1    C5.8,0.8,5.7,0.6,5.6,0.7c0-0.1,0.1-0.1,0.1-0.1c0-0.2-0.2,0.2-0.2,0.1c0,0,0,0,0,0c-0.1,0.1-0.1,0-0.1-0.1h0    c-0.1-0.1-0.2-0.1-0.3,0c0,0,0,0,0,0.1c0-0.1,0-0.2,0.1-0.3L5.1,0.7l0,0.1l0,0L5,1.2L4.6,2.6c0.1-0.4,0.2-0.9,0.3-1.4    C4.9,1.1,5,0.9,5,0.8V0.7l0-0.1c0-0.1,0.1-0.2,0.1-0.3c0,0,0-0.1-0.1,0c0,0,0,0.2,0,0.3C5,0.5,5,0.4,5,0.3c0,0-0.1,0.3-0.1,0.3    c0,0,0.1-0.3,0.1-0.3L4.8,0.6c0-0.1,0.1-0.2,0.1-0.3c0,0.1-0.1,0-0.1,0l0,0.1C4.7,0.3,4.6,0.6,4.5,0.6c0-0.1,0.1-0.2,0.1-0.4    c0,0.1-0.1,0.2-0.1,0.4v0L4.4,0.9c0,0.1-0.1,0.3-0.1,0.5C4.2,1.6,4.1,1.9,4.1,2.2C4,2.7,3.9,3.1,3.8,3.3l0.1-0.6L3.7,3.4    C3.8,3,3.9,2.4,4,1.9C4.1,1.6,4.1,1.3,4.2,1l0.1-0.2l0-0.1v0l0,0l0-0.1c0-0.1,0.1-0.2,0.2-0.3c0-0.1,0-0.1-0.1-0.1    c0,0,0-0.1,0.1-0.1L4.4,0c0,0.1-0.1,0.1-0.1,0.3l0.2-0.1c0,0.1-0.1,0.4-0.3,0.4c0-0.1,0.1-0.3,0.1-0.3c0,0.1-0.1,0.1-0.1,0    l0.1-0.1C4.1,0.1,4,0.4,4,0.2c0,0,0-0.2-0.1-0.1c0,0.1,0,0.3,0,0.4C3.8,0.9,3.8,1.4,3.7,1.7C3.6,2.3,3.6,2.8,3.5,3    c0-0.1,0.1-1.4,0.1-2c0-0.1,0-0.3,0.1-0.4V0.5c0,0,0-0.1,0-0.1c0-0.1,0-0.1,0-0.2c0,0,0,0.1-0.1,0.1c0,0,0-0.1,0-0.1    c0,0.1-0.1,0,0,0.1c-0.1,0-0.1,0-0.1,0c0,0.1,0,0.1-0.1,0.2c0,0,0,0,0,0.1l0,0v0.1c0,0.1,0,0.1,0,0.2c0,0.2,0,0.3-0.1,0.5    c0-0.1,0-0.3,0.1-0.5c0-0.1,0-0.1,0-0.2V0.5l0,0c-0.1,0-0.1-0.1-0.2-0.1c0,0-0.1-0.1,0-0.1c0,0,0,0.1-0.1,0.1    c-0.1-0.1,0.1,0,0-0.1C3.1,0.3,3,0.3,3,0.3c0,0.1,0.1,0,0.1,0c0,0,0,0.1,0,0.1v0.1l0,0.1C3,0.7,3,0.9,3,1.1    C2.9,1.7,2.8,2.2,2.8,2.5c-0.1,0.3,0-0.9,0-0.7C2.6,1.5,2.5,4,2.5,3c0-0.8,0.1-1.6,0.1-2.2c0.1-0.3,0.1,0.5,0.1,0.5l0-0.4    c0-0.3,0.1-0.5,0.1-0.2V0.5c0,0,0,0,0,0c0,0,0,0,0,0c0,0-0.1,0-0.1,0c-0.1,0-0.1,0-0.2-0.1c0,0,0,0,0,0.1l0,0v0.3l0-0.1    c0,0.6-0.1,0.8-0.1,1.1c-0.1,0.4-0.1,1-0.2,0.6V1.6c0,0.2,0,0.5,0.1,0.3c0,0.2,0-0.1-0.1-0.3s0-0.3-0.1,0.2l0,0.6    C2.1,2.7,2.1,3.4,2,3.2C2,4,2,3.1,2.1,4c0-1.2,0.1,0.2,0.1-1.1c0,1.1,0.1,0.5,0.1,1.5c0-0.3,0-0.6,0-0.4c0-0.1,0-0.2,0-0.2l0,0    l0,0V3.4c0-0.3,0.1-0.6,0.1-0.9c0,0.2,0,0.4,0,0.6l0.1-0.5c0,0.6,0,1.2-0.1,1.4l0,0.1c0,0.4,0,0.6,0.1,0.4c0,0.2,0.1-0.7,0.1-0.2    l0.1-0.4v0.2c0.1,0.2,0.2-1,0.2,0.4c0-0.1,0.1-0.4,0.1-0.1L2.8,5.2C2.9,5,2.8,6,2.9,5.3C2.7,7.1,3,5.8,3,6.2l0.1-0.9    c0,0.1,0.1-0.1,0.2-0.5L3.4,4c0.1-0.6,0,0.6,0.1,0.6c-0.1,0.3-0.1,0.2,0,0C3.3,5.7,3.4,5.4,3.5,5c0.1-0.4,0.2-0.8,0.1-0.1    c0.1-0.3,0.1-0.2,0,0v0.1c0,0.2-0.1,0.3-0.1,0.5c0-0.2,0-0.3,0.1-0.5c0.1-0.1,0.1-0.2,0.1-0.3L3.6,5.6v0C3.6,5.9,3.7,5.1,3.9,4.4    c0-0.1,0.1-0.3,0.1-0.5C3.7,5.4,4.1,3.4,3.8,5C4,4.3,4,4.5,4.4,2.9C4.4,3.1,4.4,3.2,4.4,3.2c0,0.2-0.1,0.4,0.1-0.1L4.2,4.3    l0.4-1.6C4.5,3.4,4.3,4.1,4.1,4.8c0.4-1.4,0.2-0.5,0.6-1.9L4.5,3.7c0,0,0.4-1.1,0.2-0.4C4.5,4.1,4.5,4.1,4.6,4.2    c0.1,0.1,0.1,0.1-0.1,0.9c0.7-2.3-0.3,1.1,0.3-0.7C4.7,4.9,4.6,5.2,4.4,5.7c0.2-0.5-0.2,0.9,0.3-0.6C4.5,5.7,4.4,5.9,4.3,6.2    c0-0.1,0.2-0.5,0.1-0.1S4.2,6.5,4.1,6.8C4.2,6.7,4.8,5,5.4,3.4C5.1,4.2,5.2,4.1,5.6,3.1C5.4,3.5,5.3,3.9,5.1,4.3    c0,0.1-0.2,0.8,0.3-0.5c-0.1,0.3,0,0.1,0.1,0c0,0.1,0,0.2,0.1,0.1l0.1-0.2c0.6-1.5,0.2-0.3,0.3-0.5L5.8,3.4    C5.4,4.5,6.1,2.9,5.7,4.1l0.4-0.9c0.4-1,0.3-0.7,0.2-0.2C6.1,3.4,5.8,4,6,3.7l0.2-0.5c0.4-0.7-1.1,2.7-1.3,3    C4.9,6.3,4.8,6.4,4.8,6.5C4.3,7.7,5.3,5.3,5.5,5C5.2,5.7,4.7,6.7,4.7,6.8C4.6,7.1,4.8,6.5,5.1,6.1S5.5,5.4,5.2,6    c0.2-0.5,0.5-1,0.7-1.3C6,4.5,5,6.5,5.8,5C5.8,5.2,5.7,5.3,5.6,5.4C5.9,5,6.1,4.8,6.5,4C5.7,5.5,5.9,5.1,6.2,4.7S6.8,4,5.9,5.3    l0.2-0.1L5.9,5.5C5.9,5.6,6.3,5,6.7,4.4C6.6,4.6,6.4,4.8,6.4,5C6.1,5.5,6.2,5.4,7.1,4.2L6.5,5c0.2-0.2,0,0.1-0.2,0.4    s-0.2,0.4,0.1,0C6.4,5.4,6.3,5.5,6.2,5.7C6.6,5.2,6.2,5.7,6,6S5.8,6.3,6.9,5c0.2-0.2,0.4-0.4,0.6-0.6c0.1-0.2,0.9-1.1,1.3-1.5    C8.6,3.2,8.4,3.5,8.1,3.8l0.1-0.1C7,5,7.9,4.2,7.1,5c0.1,0,0.1,0.1,0,0.3S6.9,5.7,7,5.7l0.9-0.8v0.1C7.6,5.1,7.4,5.3,7.1,5.5    C6.7,6,7.6,5.1,7.8,5C7.6,5.2,7.4,5.4,7.2,5.5C7.1,5.6,7,5.7,6.9,5.8c0,0-0.1,0.1-0.1,0.1l0.1-0.1L7,5.7c0.2-0.2,0.5-0.4,0.8-0.6    C7.6,5.3,7.2,5.6,7.2,5.6c-0.1,0.1-0.1,0.1,0,0v0.1l0.6-0.6C8.1,5,8.4,4.8,8.6,4.6C8,5.1,8,5.1,8,5.2c0.1,0,0.2,0,0.1,0.1    C8.6,4.9,8.7,4.9,8.7,5c0.2-0.2,0.5-0.3,0.8-0.5C9.1,4.7,8.8,4.9,8.5,5.2C8.3,5.3,8.1,5.5,7.9,5.6C8.5,5.2,8.2,5.5,9.1,5    C8.8,5.2,8.6,5.3,8.3,5.4c0.3-0.1,0.3-0.1,0.2,0S8.4,5.6,8.6,5.6C8.7,5.5,9,5.4,9.2,5.3C9,5.4,8.8,5.5,8.6,5.7    c0.1,0,0.9-0.4,0.4-0.1c0.1-0.1,0.3-0.1,0.4-0.1C9.2,5.6,9.5,5.6,9.7,5.6c0.1,0,0.2,0.1,0.2,0.1c0,0.1,0,0.1,0,0.2    c0.1,0,0.1,0,0.2,0c0,0,0.1,0,0.2-0.1c0,0-0.1,0.1-0.1,0.1c0.1,0,0.1,0,0.2,0c0,0,0.1,0.1,0.1,0l-0.1,0c0.1,0,0.2,0,0.2-0.1    L11,5.8c-0.1,0,0.1-0.2,0-0.3c0,0,0,0,0.1,0c-0.1,0-0.1,0-0.1-0.1l0,0c0-0.1,0-0.1,0-0.2V5l-0.1,0c0,0,0-0.1,0-0.1    c-0.1,0,0,0.1-0.1,0.1c0.1-0.1-0.1-0.3,0.1-0.4c0-0.1-0.1,0.1-0.1,0l0,0h-0.1c0,0,0-0.1,0.1-0.1l0,0c0-0.1-0.1-0.1-0.1-0.1v0.1    c-0.1-0.1-0.1-0.4-0.3-0.4l0,0c-0.1-0.1,0-0.1-0.1-0.2l0,0c-0.1,0-0.1,0-0.1-0.1c0.1,0,0.1-0.1,0.1-0.1c-0.1-0.1-0.1,0-0.3,0    l0.1-0.1c-0.1,0-0.1,0-0.1,0c0.1,0,0.1-0.1,0.2-0.1c0.1-0.2-0.2-0.1-0.1-0.3c-0.2,0.1,0,0.2-0.1,0.2c0,0.1-0.1,0.1-0.1,0    c0,0,0.2-0.2,0.1-0.3h0c0-0.1-0.1,0-0.1-0.1c-0.1,0.1,0-0.1-0.2,0.1l0.1,0.1c-0.1,0-0.2,0.1-0.2-0.1c0,0,0.1,0,0.1,0    c0-0.1-0.1,0,0-0.1C9.9,3,9.9,3.2,10,3.2c0-0.1-0.2,0,0-0.1C9.8,3.2,9.9,2.9,9.8,3l0.1-0.1c0,0-0.1,0-0.1,0l0.1-0.1    c-0.1,0,0-0.1-0.1-0.2c0.1,0.1-0.1,0.1-0.1,0.2c-0.2,0,0.1-0.3,0-0.4c0,0,0,0.1,0,0.1V2.5C9.5,2.5,9.6,2.6,9.5,2.6    c0.1-0.1-0.1,0-0.1,0l0.1-0.1c-0.1-0.1-0.2,0.1-0.2,0l0.1-0.1H9.3l0.1-0.1c-0.1,0-0.1,0-0.1-0.1c0,0.1-0.1,0.1-0.2,0.1    c0-0.1,0.1-0.1,0-0.1c0.1,0,0.1-0.1,0.1,0c0,0,0.1,0,0.1-0.1c0-0.1-0.1-0.1-0.1-0.1v0L9,2.2c0,0,0-0.1,0.1-0.1c0,0-0.1,0-0.1,0    C9,2,9,1.9,9.1,1.9H9c0,0,0-0.1,0.1-0.1c0-0.1-0.2,0.1-0.2-0.1c0,0,0,0-0.1,0C8.7,1.7,8.7,1.5,8.5,1.6l0.1-0.2    c-0.1,0-0.1,0.2-0.2,0.2c-0.1,0,0.1-0.1,0.1-0.2c-0.1,0.1-0.2,0.1-0.2,0C8.1,1.6,8.1,1.6,8.1,1.6z M7.3,1.2    C7.3,1.2,7.4,1.2,7.3,1.2C7.3,1.3,7.4,1.3,7.3,1.2L7.3,1.2z M6,1C6,0.9,6,1,6,1C6,1,6.1,1,6,1L6,1z M2.4,4L2.4,4z M2.3,3.6    c0,0.1,0,0.2,0,0.3c0-0.2,0-0.2,0-0.1C2.3,3.6,2.3,3.5,2.3,3.6L2.3,3.6z M7.3,5.5l0.1-0.1C7.6,5.2,7.4,5.3,7.3,5.5L7.3,5.5z"/>
		<path class="st1" d="M6.2,0.9L6.2,0.9z"/>
		<path class="st1" d="M8.6,1.9L8.6,1.9L8.6,1.9L8.6,1.9z"/>
		<path class="st1" d="M3.7,0.2C3.7,0.3,3.7,0.3,3.7,0.2C3.7,0.3,3.7,0.3,3.7,0.2z"/>
		<path class="st1" d="M2,4.4l0-0.1c0,0,0-0.1,0-0.3C2,4.2,2,4.4,2,4.4z"/>
		<path class="st1" d="M1.7,0.5L1.7,0.5C1.7,0.5,1.7,0.5,1.7,0.5C1.7,0.6,1.7,0.6,1.7,0.5l0,0.3c0,0,0-0.1,0-0.1V0.5    C1.7,0.6,1.7,0.5,1.7,0.5L1.7,0.5z"/>
		<path class="st1" d="M2,2.3C2,1.7,2,1.9,2,2l0,0C2,2.7,2,2.5,2,2.3z"/>
		<path class="st1" d="M2,2C2,2,1.9,2,2,2C1.9,2.3,1.9,2.1,2,2z"/>
		<path class="st1" d="M2.3,3.9c0-0.1,0,0.7,0,0.5C2.2,5.1,2.3,3.6,2.3,3.9z"/>
		<path class="st1" d="M2,0.5l0,0.6l0.1-0.5L2,0.5z"/>
		<path class="st1" d="M2.3,1.1l0-0.2C2.3,0.9,2.3,1,2.3,1.1C2.3,1.1,2.3,1.3,2.3,1.1z"/>
		<path class="st1" d="M2.2,1.1c0,0,0,0,0,0.1C2.2,1.2,2.2,1.2,2.2,1.1z"/>
		<path class="st1" d="M2.1,0.5L2.1,0.5L2.1,0.5L2.1,0.5z"/>
		<path class="st1" d="M2.8,1.3l0.1-0.2c0-0.3,0-0.4,0-0.3C2.8,0.9,2.8,1.1,2.8,1.3z"/>
		<path class="st1" d="M2.7,0.4C2.7,0.4,2.7,0.4,2.7,0.4L2.7,0.4L2.7,0.4z"/>
		<path class="st1" d="M2.9,0.4C2.9,0.3,3,0.3,2.9,0.4C2.9,0.3,2.8,0.3,2.9,0.4z"/>
		<path class="st1" d="M3.7,0.6L3.7,0.6L3.5,2l0.1-0.9L3.7,0.6L3.7,0.6z"/>
		<path class="st1" d="M4.6,0.2C4.5,0.1,4.5,0.4,4.6,0.2C4.5,0.3,4.5,0.3,4.5,0.4C4.6,0.3,4.6,0.4,4.6,0.2z"/>
		<path class="st1" d="M4.5,0.4L4.5,0.4L4.5,0.4z"/>
		<path class="st1" d="M10.2,6C10.2,6,10.2,6,10.2,6L10.2,6L10.2,6z"/>
		<path class="st1" d="M10.4,6L10.4,6L10.4,6C10.4,6.1,10.4,6.1,10.4,6C10.4,6,10.4,6,10.4,6z"/>
		<path class="st1" d="M7.4,0.9L7.4,0.9C7.3,0.9,7.3,1,7.4,0.9L7.4,0.9z"/>
		<path class="st1" d="M7.9,1.3L7.9,1.3L7.8,1.4L7.9,1.3z"/>
		<path class="st1" d="M8.4,1.4C8.4,1.4,8.4,1.4,8.4,1.4C8.4,1.4,8.3,1.6,8.4,1.4z"/>
	</g>
	<g transform="translate(48.295 6.178)">
		<path class="st1" d="M1.3,3.4"/>
		<path class="st1" d="M1.3,3.3L1.3,3.3z"/>
		<path class="st1" d="M1.3,3.2C1.2,3.3,1.3,3.3,1.3,3.2L1.3,3.2C1.4,3.3,1.3,3.3,1.3,3.2z"/>
		<path class="st1" d="M1.6,3.1C1.5,3.1,1.6,3.1,1.6,3.1z"/>
		<path class="st1" d="M1.6,3.1"/>
		<path class="st1" d="M1.6,3L1.6,3C1.6,3.1,1.7,3,1.6,3C1.6,3,1.6,3,1.6,3z"/>
		<path class="st1" d="M1.5,3.1L1.5,3.1C1.5,3.1,1.5,3,1.5,3.1z"/>
		<path class="st1" d="M1.6,3.1"/>
		<path class="st1" d="M1.5,3.1C1.5,3.1,1.5,3.1,1.5,3.1C1.4,3.1,1.5,3.1,1.5,3.1z"/>
		<path class="st1" d="M1.2,3.3"/>
		<path class="st1" d="M1.7,2.9c0,0-0.1,0-0.1,0.1L1.7,2.9C1.7,3,1.7,2.9,1.7,2.9z"/>
		<path class="st1" d="M1.6,3L1.6,3C1.6,3,1.6,3,1.6,3z"/>
		<path class="st1" d="M1.4,3.1L1.4,3.1z"/>
		<path class="st1" d="M1.8,2.8L1.8,2.8L1.8,2.8L1.8,2.8z"/>
		<path class="st1" d="M1.8,2.8c0,0,0.1,0,0.1-0.1L1.8,2.8C1.9,2.8,1.9,2.8,1.8,2.8z"/>
		<path class="st1" d="M1.8,2.8L1.8,2.8C1.9,2.8,1.9,2.8,1.8,2.8z"/>
		<path class="st1" d="M1.6,2.9C1.6,2.9,1.7,2.9,1.6,2.9L1.6,2.9z"/>
		<path class="st1" d="M1.6,2.9"/>
		<path class="st1" d="M1.6,2.9"/>
		<path class="st1" d="M1.5,3c-0.1,0-0.1,0-0.1,0.1C1.4,3.1,1.4,3.1,1.5,3z"/>
		<path class="st1" d="M1.5,3L1.5,3C1.5,3,1.5,3,1.5,3L1.5,3z"/>
		<path class="st1" d="M1.5,3"/>
		<path class="st1" d="M1.7,2.8L1.7,2.8C1.6,2.9,1.6,2.9,1.7,2.8C1.6,2.9,1.7,2.9,1.7,2.8z"/>
		<path class="st1" d="M1.7,2.9"/>
		<path class="st1" d="M1.7,2.8"/>
		<path class="st1" d="M1.6,2.9C1.6,2.9,1.6,2.9,1.6,2.9z"/>
		<path class="st1" d="M1.8,2.8C1.7,2.8,1.7,2.8,1.8,2.8C1.7,2.8,1.8,2.8,1.8,2.8z"/>
		<path class="st1" d="M1.7,2.9"/>
		<path class="st1" d="M1.7,2.9L1.7,2.9C1.6,2.9,1.6,2.9,1.7,2.9z"/>
		<path class="st1" d="M1,3L1,3c0.2,0,0.4-0.1,0.6-0.2c0,0-0.1,0-0.1,0c-0.1,0-0.2,0.1-0.2,0.1c-0.1,0,0,0,0.1-0.1    c-0.1,0-0.1,0-0.2,0.1C1.1,2.9,1.1,2.9,1,3C1.1,2.9,1.1,2.9,1,3L1,3z"/>
		<path class="st1" d="M1.7,2.8L1.7,2.8c0.1,0,0.1,0,0.2-0.1C1.8,2.7,1.7,2.8,1.7,2.8L1.7,2.8L1.7,2.8z"/>
		<path class="st1" d="M1.7,2.8c-0.1,0-0.2,0-0.3,0.1c0,0,0.1,0,0.1,0C1.6,2.9,1.6,2.8,1.7,2.8L1.7,2.8C1.7,2.8,1.7,2.8,1.7,2.8    L1.7,2.8C1.7,2.8,1.7,2.8,1.7,2.8C1.7,2.8,1.7,2.8,1.7,2.8L1.7,2.8z"/>
		<path class="st1" d="M1.1,3.1"/>
		<path class="st1" d="M1.2,3.1L1.2,3.1C1.2,3.1,1.2,3.1,1.2,3.1C1.2,3.1,1.2,3.1,1.2,3.1L1.2,3.1C1.3,3.1,1.3,3,1.4,3    C1.3,3,1.2,3.1,1.2,3.1z"/>
		<path class="st1" d="M1.4,3L1.4,3L1.2,3L1.4,3C1.3,3,1.3,3,1.4,3z"/>
		<path class="st1" d="M1.8,2.7l0.1-0.1L1.8,2.7L1.8,2.7z"/>
		<path class="st1" d="M1.8,2.7L1.8,2.7L1.8,2.7L1.8,2.7z"/>
		<path class="st1" d="M0.4,1.5"/>
		<path class="st1" d="M0.4,1.5"/>
		<path class="st1" d="M1.9,1.9c0.2-0.1,0.4-0.2,0.2-0.1L1.9,1.9C2,1.9,2,1.9,1.9,1.9z"/>
		<path class="st1" d="M0.6,1.8L0.6,1.8C0.6,1.8,0.7,1.8,0.6,1.8C0.7,1.8,0.6,1.9,0.6,1.8z"/>
		<path class="st1" d="M0.5,1.9"/>
		<path class="st1" d="M0.3,1.3"/>
		<path class="st1" d="M1.8,2.4c0.1,0,0.1-0.1,0.1-0.1C1.8,2.3,1.7,2.4,1.8,2.4z"/>
		<path class="st1" d="M1.6,1.1c0,0-0.1,0-0.1,0C1.5,1.1,1.6,1.1,1.6,1.1z"/>
		<path class="st1" d="M1.9,2.3C1.9,2.3,1.9,2.3,1.9,2.3C1.9,2.3,1.9,2.3,1.9,2.3L1.9,2.3C2,2.3,2.1,2.3,1.9,2.3z"/>
		<path class="st1" d="M0,0.4"/>
		<path class="st1" d="M0.2,0"/>
		<path class="st1" d="M1.9,2.5"/>
		<path class="st1" d="M1.3,2.8C1.3,2.8,1.3,2.8,1.3,2.8C1.3,2.8,1.3,2.8,1.3,2.8z"/>
		<path class="st1" d="M0.9,2.6"/>
		<path class="st1" d="M1.8,2.5C1.8,2.5,1.8,2.5,1.8,2.5C1.8,2.5,1.8,2.5,1.8,2.5z"/>
		<path class="st1" d="M1.9,2.5"/>
		<path class="st1" d="M1.9,2.5"/>
		<path class="st1" d="M0.2,0.8"/>
		<path class="st1" d="M0.6,2.2L0.6,2.2L0.6,2.2z"/>
		<path class="st1" d="M0.6,2.2C0.6,2.2,0.6,2.2,0.6,2.2L0.6,2.2L0.6,2.2z"/>
		<path class="st1" d="M0.3,1.4L0.3,1.4C0.3,1.4,0.3,1.4,0.3,1.4C0.3,1.4,0.3,1.5,0.3,1.4L0.3,1.4L0.3,1.4c0,0.1,0.1,0.1,0.1,0.1    c0,0,0,0,0,0c0,0,0,0,0,0h0l0,0l0,0c-0.1,0,0,0,0,0.1l0,0c0,0,0,0,0,0.1c0,0,0.1-0.1,0.1-0.1v0c0,0,0,0,0,0h0c0,0,0,0-0.1,0    c0,0,0,0,0.1,0c0,0,0,0,0,0c0,0,0,0,0,0h0.1c0,0-0.1,0.1,0,0.1h0c0,0,0,0,0.1,0l0,0c0,0,0.1,0,0.1,0c0,0,0,0,0,0h0c0,0,0,0,0.1,0    c0,0,0.1,0,0.1,0l0.2,0C1,1.8,0.9,1.8,0.8,1.9c0,0,0.1,0,0.1,0c0,0-0.1,0-0.1,0c0,0,0,0-0.1,0h0l0,0H0.7l0,0h0v0    c0.1,0,0.1,0,0.1,0c0,0-0.1,0-0.1,0c0,0,0,0,0,0h0l0,0c0,0,0,0,0,0c0.1,0,0.1,0,0.1,0h0c0,0,0.1,0,0,0l0,0c0,0,0,0,0,0l0,0    c0,0,0,0.1,0.1,0.1l-0.1,0h0.1l0.1,0L1.3,2C1.2,2.1,1,2.2,0.9,2.2c0,0-0.1,0-0.1,0v0l0.1,0L0.8,2.3c0,0,0.1,0,0.1,0l-0.1,0h0.1    l-0.1,0c0,0,0,0,0,0c0,0,0,0,0,0v0c0,0,0.1,0,0.1,0l-0.1,0h0.1c0.1,0,0.3-0.1,0.4-0.1c0.1,0,0.2,0,0.3-0.1L1.4,2.3l0.2,0    c-0.1,0-0.2,0.1-0.4,0.1c-0.1,0-0.1,0-0.2,0.1l-0.1,0H0.8c0,0,0,0,0,0h0v0h0.1l-0.1,0h0.1c0,0-0.1,0-0.1,0l0,0h0c0,0,0.1,0,0,0    l0,0c0,0,0.1,0,0.1,0c0.3-0.1,0.5-0.2,0.6-0.2c0,0-0.3,0.1-0.5,0.2c0,0-0.1,0-0.1,0H0.9c0,0,0,0,0,0c0,0,0,0,0,0c0,0,0,0,0,0v0H1    c0,0,0.2-0.1,0.2-0.1c0,0-0.1,0-0.1,0S1,2.6,1,2.6v0.1c0,0,0,0,0,0l0,0h0c0,0,0,0,0,0c0,0,0,0,0.1,0c0,0,0,0,0,0h0.1    c0,0,0.1,0,0.1,0c0.1,0,0.2,0,0.3-0.1c0.1,0-0.2,0.1-0.1,0.1c-0.1,0.1,0.5-0.1,0.3,0C1.5,2.7,1.3,2.8,1.2,2.8    c-0.1,0,0.1-0.1,0.1-0.1L1.2,2.8c-0.1,0-0.1,0-0.1,0c0,0,0,0-0.1,0l0,0v0.1h0.1c0,0,0,0,0.1,0h0c0.1-0.1,0.2-0.1,0.3-0.1    c0.1,0,0.2-0.1,0.2,0L1.4,2.8l0.1,0c0.1,0-0.3,0.1,0,0l0.1-0.1c0.1,0,0.3-0.1,0.2,0c0.2-0.1,0,0,0.2-0.1C1.7,2.8,2,2.6,1.7,2.7    C1.9,2.7,2,2.6,2.1,2.6C2,2.6,2,2.6,2,2.6c0,0,0,0-0.1,0l0,0c0,0-0.1,0-0.1,0c-0.1,0-0.1,0-0.2,0c0,0,0.1,0,0.1-0.1l-0.1,0    C1.8,2.6,1.9,2.6,2,2.5l0,0c0.1,0,0.1-0.1,0.1-0.1c0,0-0.2,0-0.1,0H2l0,0c0,0-0.3,0,0.1-0.1c0,0-0.1,0,0,0l0.1-0.1    c-0.1,0,0.2-0.1,0-0.1C2.7,2,2.3,2.1,2.4,2L2.2,2.1c0,0,0,0-0.1,0L1.9,2.2C1.7,2.2,2,2.1,2,2c0.1,0,0.1,0,0,0C2.4,1.9,1.7,2.1,2,2    c-0.1,0-0.1,0,0,0l0,0c0,0,0.1,0,0.1-0.1C2.1,1.9,2,1.9,2,1.9H1.9l0.2-0.1l0,0C2.1,1.9,2,1.9,1.9,1.9c0,0-0.1,0-0.1,0    C2.1,1.8,1.6,2,2,1.8C1.8,1.9,1.6,1.9,1.4,2c0,0,0.1,0,0.1,0c0,0,0.1-0.1,0,0l0.3-0.1L1.4,1.9c0.2-0.1,0.3-0.1,0.5-0.2L1.4,1.9    l0.2-0.1c0,0-0.3,0.1-0.1,0c0.4-0.1,0-0.1,0.4-0.3c-0.6,0.2,0.3-0.1-0.2,0c0.1,0,0.2-0.1,0.3-0.1c-0.1,0,0.2-0.1-0.2,0    c0.1,0,0.2-0.1,0.3-0.1c0,0-0.1,0,0,0c0.1,0,0.1,0,0.2-0.1C1.9,1.4,1.7,1.5,1.4,1.6c0.2-0.1,0.1-0.1-0.1,0    c0.1-0.1,0.2-0.1,0.3-0.1c0,0,0.2-0.1-0.1,0c0.1,0,0,0,0,0c0,0,0,0,0,0l-0.1,0c-0.4,0.1-0.1,0-0.1,0h0c0.3-0.1-0.1,0,0.2-0.1    L1.2,1.5C0.6,1.6,1.5,1.3,1.3,1.4L1.1,1.4C0.9,1.5,1.8,1.2,1.9,1.1c0,0,0.1,0,0.1,0C2.3,1,1.7,1.2,1.6,1.2C1.7,1.2,1.9,1.1,2,1    c0.1-0.1-0.6,0.1-0.2,0c-0.1,0-0.2,0.1-0.4,0.1C1.4,1.2,1.9,1,1.5,1.1c0,0,0.1,0,0.1,0c-0.1,0-0.2,0-0.4,0.1C2,0.9,0.8,1.2,1.5,1    L1.4,1l0.1,0c0,0-0.1,0-0.3,0.1c0.1,0,0.1,0,0.1-0.1c0.1-0.1,0.1-0.1-0.3,0l0.2-0.1c-0.1,0,0.3-0.2,0.1-0.1c0,0,0.1,0,0.1,0    C1.2,0.8,2,0.5,1.2,0.7L1,0.8C0.9,0.8,0.7,0.9,0.6,1C0.5,1,0.8,0.8,0.8,0.8l0,0c0.4-0.1,0.1-0.1,0.4-0.2c-0.1,0,0.1-0.2,0.1-0.2    L1,0.6v0c0.1,0,0.2-0.1,0.2-0.1C1.3,0.5,1,0.5,1,0.6c0.1-0.1,0.2-0.1,0.3-0.1H1.2L1,0.5c0.1,0,0.1,0,0.2-0.1l0,0v0L1,0.5    c-0.1,0,0,0-0.2,0.1c0.4-0.1,0.1-0.1,0.1-0.2c-0.1,0-0.1,0-0.1,0c0,0-0.2,0.1-0.2,0.1c0.4-0.1,0.1-0.1,0.4-0.2    c-0.2,0.1-0.1,0-0.3,0.1c0.1,0,0.1-0.1,0.2-0.1c-0.2,0,0-0.1-0.1-0.1c-0.1,0-0.1,0-0.1,0.1l0.2-0.1c0,0-0.2,0.1-0.1,0    c0,0-0.1,0-0.1,0c0.1-0.1,0-0.1-0.1-0.1S0.4,0,0.4,0c0,0,0,0,0,0c0,0,0,0-0.1,0v0C0.3,0,0.3,0,0.2,0h0c0,0-0.1,0.1-0.1,0.1    c0,0,0,0.1,0,0.1h0c0,0,0,0,0,0l0,0c0,0,0,0.1,0,0.1h0v0c0,0,0,0,0,0c0,0,0,0.1,0,0.1c0,0,0,0,0,0h0c0,0,0,0,0,0c0,0,0,0,0,0l0,0    l0,0c0,0,0,0.1,0.1,0.1l0,0c0,0,0,0,0,0.1l0,0c0,0,0,0,0,0c0,0,0,0,0,0l0,0c0,0,0,0,0.1,0l0,0c0,0,0,0-0.1,0c0,0.1,0.1,0,0,0.1    c0.1,0,0,0,0,0h0c0,0-0.1,0-0.1,0.1l0,0c0,0,0,0,0,0c0,0,0,0,0,0l0,0c0,0,0.1,0,0.1,0h0v0c0,0,0,0-0.1,0c0,0,0,0,0,0    c0.1,0,0,0,0.1,0h0c0,0,0,0,0,0.1c0,0,0,0,0,0l0,0c0,0-0.1,0,0,0.1c0,0,0,0,0,0l0,0c0,0,0,0,0,0l0,0c0,0,0,0,0,0c0,0,0,0,0,0h0    c0,0,0.1,0,0.1,0H0.4c0,0,0,0,0,0c0,0,0,0,0,0h0.1c0,0,0,0,0,0c0,0,0,0,0,0H0.4v0l0,0l0.1,0H0.4l0,0l0,0c0,0,0.1,0,0,0.1l0,0    c0,0,0,0.1,0,0.1L0.3,1.4c0.1-0.1,0.1-0.1,0.1-0.1c0,0,0,0,0,0c0,0,0,0,0,0C0.3,1.4,0.4,1.4,0.3,1.4L0.3,1.4z M1.8,2.5L1.8,2.5    C1.8,2.5,1.8,2.5,1.8,2.5L1.8,2.5z M1.7,2.5C1.7,2.5,1.8,2.5,1.7,2.5L1.7,2.5C1.7,2.5,1.7,2.5,1.7,2.5L1.7,2.5z M0.9,0.5L0.9,0.5    C0.9,0.5,0.9,0.5,0.9,0.5L0.9,0.5z"/>
		<path class="st1" d="M0.5,1.9"/>
		<path class="st1" d="M0.3,1.3"/>
		<path class="st1" d="M0.8,2.5"/>
		<path class="st1" d="M1.9,2.6L1.9,2.6C1.9,2.6,1.8,2.6,1.9,2.6C1.9,2.6,1.9,2.6,1.9,2.6z"/>
		<path class="st1" d="M1,3L1,3L1,3C1.1,3,1.1,3,1,3z"/>
		<path class="st1" d="M1.4,2.8C1.3,2.8,1.3,2.8,1.4,2.8L1.4,2.8C1.5,2.8,1.5,2.8,1.4,2.8z"/>
		<path class="st1" d="M1.4,2.8L1.4,2.8C1.4,2.8,1.4,2.8,1.4,2.8z"/>
		<path class="st1" d="M1.8,2.5c0,0,0.2-0.1,0.1,0C2.1,2.5,1.7,2.5,1.8,2.5z"/>
		<path class="st1" d="M1,2.9l0.1-0.1L1,2.9L1,2.9z"/>
		<path class="st1" d="M1.1,2.8L1.1,2.8L1.1,2.8z"/>
		<path class="st1" d="M1.1,2.8"/>
		<path class="st1" d="M1,2.9"/>
		<path class="st1" d="M1.1,2.6L1.1,2.6C1,2.7,1,2.7,1,2.7C1,2.7,1.1,2.7,1.1,2.6z"/>
		<path class="st1" d="M0.9,2.8"/>
		<path class="st1" d="M0.9,2.7"/>
		<path class="st1" d="M0.9,2.5L0.9,2.5l0.3-0.1L1,2.5L0.9,2.5z"/>
		<path class="st1" d="M0.6,2.3C0.6,2.4,0.7,2.3,0.6,2.3L0.6,2.3C0.7,2.3,0.7,2.3,0.6,2.3z"/>
		<path class="st1" d="M0.7,2.3"/>
		<path class="st1" d="M0.1,0"/>
		<path class="st1" d="M0.1,0"/>
		<path class="st1" d="M0.4,1.7"/>
		<path class="st1" d="M0.3,1.5"/>
		<path class="st1" d="M0.2,1.4L0.2,1.4C0.2,1.4,0.3,1.4,0.2,1.4z"/>
	</g>
	<g transform="translate(53.088 5.66)">
		<path class="st1" d="M0,5.2"/>
		<path class="st1" d="M0.1,5.1"/>
		<path class="st1" d="M0.2,5C0.1,5,0.2,5,0.2,5L0.1,5L0.2,5C0.2,5.1,0.2,5,0.2,5z"/>
		<path class="st1" d="M0.5,5.1C0.5,5,0.5,5,0.5,5.1L0.5,5.1z"/>
		<path class="st1" d="M0.5,5.1"/>
		<path class="st1" d="M0.6,5L0.6,5C0.6,5,0.6,5,0.6,5C0.6,5,0.6,5,0.6,5z"/>
		<path class="st1" d="M0.5,5"/>
		<path class="st1" d="M0.5,5L0.5,5C0.5,5,0.4,5,0.5,5C0.5,5,0.5,5,0.5,5z"/>
		<path class="st1" d="M0.5,5C0.5,5,0.4,5,0.5,5C0.4,5,0.5,5,0.5,5z"/>
		<path class="st1" d="M0.1,5L0.1,5z"/>
		<path class="st1" d="M0.8,5c0,0-0.1,0-0.1-0.1L0.8,5C0.7,5,0.7,5,0.8,5z"/>
		<path class="st1" d="M0.6,5L0.6,5C0.6,4.9,0.6,4.9,0.6,5z"/>
		<path class="st1" d="M0.4,4.9L0.4,4.9C0.4,5,0.4,4.9,0.4,4.9z"/>
		<path class="st1" d="M0.9,5L0.9,5L0.9,5L0.9,5z"/>
		<path class="st1" d="M0.9,4.9C1,5,1,5,1,5C1,5,1,4.9,0.9,4.9L0.9,4.9z"/>
		<path class="st1" d="M0.9,4.9C0.9,4.9,1,4.9,0.9,4.9C1,4.9,0.9,4.9,0.9,4.9z"/>
		<path class="st1" d="M0.7,4.9c0,0,0.1,0,0.1,0L0.7,4.9z"/>
		<path class="st1" d="M0.7,4.9"/>
		<path class="st1" d="M0.7,4.9"/>
		<path class="st1" d="M0.5,4.9c0,0-0.1-0.1-0.1-0.1C0.4,4.9,0.4,4.9,0.5,4.9z"/>
		<path class="st1" d="M0.5,4.9L0.5,4.9C0.5,4.9,0.6,4.9,0.5,4.9L0.5,4.9z"/>
		<path class="st1" d="M0.5,4.8L0.5,4.8L0.5,4.8L0.5,4.8z"/>
		<path class="st1" d="M0.8,4.8L0.8,4.8L0.8,4.8C0.8,4.8,0.8,4.9,0.8,4.8z"/>
		<path class="st1" d="M0.7,4.9"/>
		<path class="st1" d="M0.9,4.7"/>
		<path class="st1" d="M0.7,4.8"/>
		<path class="st1" d="M0.9,4.8C0.9,4.8,0.9,4.8,0.9,4.8C0.9,4.8,1,4.8,0.9,4.8z"/>
		<path class="st1" d="M0.8,4.9"/>
		<path class="st1" d="M0.8,4.9C0.7,4.8,0.7,4.8,0.8,4.9L0.8,4.9L0.8,4.9z"/>
		<path class="st1" d="M0.2,4.4C0.2,4.4,0.3,4.5,0.2,4.4c0.2,0.2,0.4,0.3,0.6,0.3c-0.1,0-0.1,0-0.1-0.1c-0.1,0-0.2,0-0.3-0.1    c0-0.1,0.1,0,0.1,0L0.4,4.5C0.3,4.5,0.3,4.5,0.2,4.4C0.2,4.4,0.2,4.4,0.2,4.4C0.2,4.4,0.2,4.4,0.2,4.4L0.2,4.4z"/>
		<path class="st1" d="M0.8,4.7L0.8,4.7c0.1,0,0.1,0,0.2,0.1C1,4.8,0.9,4.8,0.8,4.7L0.8,4.7z"/>
		<path class="st1" d="M0.8,4.8C0.7,4.7,0.6,4.7,0.5,4.7c0,0,0.1,0.1,0.1,0.1C0.6,4.7,0.7,4.8,0.8,4.8L0.8,4.8    C0.8,4.8,0.8,4.8,0.8,4.8L0.8,4.8C0.8,4.8,0.8,4.8,0.8,4.8C0.8,4.8,0.8,4.8,0.8,4.8L0.8,4.8C0.8,4.8,0.8,4.8,0.8,4.8    C0.8,4.7,0.8,4.8,0.8,4.8C0.8,4.8,0.8,4.8,0.8,4.8z"/>
		<path class="st1" d="M0.2,4.7"/>
		<path class="st1" d="M0.2,4.7L0.2,4.7C0.2,4.8,0.2,4.7,0.2,4.7C0.2,4.8,0.2,4.8,0.2,4.7L0.2,4.7c0.1,0.1,0.2,0.1,0.2,0.1    C0.3,4.8,0.3,4.8,0.2,4.7z"/>
		<path class="st1" d="M0.5,4.7L0.5,4.7L0.3,4.7L0.5,4.7C0.3,4.7,0.4,4.7,0.5,4.7z"/>
		<path class="st1" d="M1,4.7l0.1,0.1L1,4.7L1,4.7z"/>
		<path class="st1" d="M1,4.7l0.1,0.1L1,4.7L1,4.7z"/>
		<path class="st1" d="M1.1,2.1"/>
		<path class="st1" d="M1,2.2"/>
		<path class="st1" d="M1.8,3.9C2,3.9,2.2,4,2,3.9L1.8,3.9C1.9,3.9,1.8,3.9,1.8,3.9z"/>
		<path class="st1" d="M1,2.7L1,2.7C1,2.8,1,2.8,1,2.7C1,2.8,0.9,2.7,1,2.7z"/>
		<path class="st1" d="M0.8,2.7"/>
		<path class="st1" d="M1.2,1.7"/>
		<path class="st1" d="M1.3,4.4c0,0,0.1,0,0.1,0C1.3,4.4,1.2,4.3,1.3,4.4z"/>
		<path class="st1" d="M2.3,2.6c0,0-0.1,0-0.1-0.1C2.2,2.6,2.2,2.6,2.3,2.6z"/>
		<path class="st1" d="M1.5,4.4L1.5,4.4C1.4,4.4,1.5,4.4,1.5,4.4C1.5,4.4,1.5,4.4,1.5,4.4z"/>
		<path class="st1" d="M1.8,0.4"/>
		<path class="st1" d="M2.2,0.1L2.2,0.1C2.2,0.2,2.2,0.1,2.2,0.1z"/>
		<path class="st1" d="M1.2,4.6"/>
		<path class="st1" d="M0.6,4.4C0.6,4.4,0.6,4.4,0.6,4.4C0.6,4.4,0.6,4.4,0.6,4.4z"/>
		<path class="st1" d="M0.5,3.9"/>
		<path class="st1" d="M1.1,4.6L1.1,4.6z"/>
		<path class="st1" d="M1.2,4.6"/>
		<path class="st1" d="M1.2,4.6"/>
		<path class="st1" d="M1.5,1.2"/>
		<path class="st1" d="M0.7,3.2"/>
		<path class="st1" d="M0.7,3.1C0.7,3.2,0.7,3.2,0.7,3.1L0.7,3.1L0.7,3.1z"/>
		<path class="st1" d="M1.1,1.9L1.1,1.9C1.1,1.9,1.1,1.9,1.1,1.9C1.1,1.9,1,1.9,1.1,1.9L1.1,1.9C1,2,1.1,2,1.1,2.1h0v0l0,0v0.1l0,0    l0,0h0v0c0,0,0,0,0,0c0,0,0,0,0,0C1,2.2,1,2.2,1,2.2v0c-0.1,0,0,0-0.1,0c0,0,0.1,0,0.1,0c0,0,0,0,0,0c0,0,0,0,0,0l0,0    c0,0,0,0,0,0.1s0,0-0.1,0c0,0,0.1,0,0,0c0,0,0,0.1,0,0.1c0,0,0,0,0,0h0l0,0l0,0c0,0,0,0,0,0l0,0c0,0-0.1,0,0,0.1c0,0,0,0,0,0    c0,0,0,0,0,0c0,0.1,0,0,0,0.1l0,0c0,0,0.1,0,0.1,0.1h0c0,0,0.1,0,0.1,0c0,0,0.1,0,0.1,0l0.1,0.1C1.3,2.9,1.2,2.8,1,2.8    c0,0,0,0,0.1,0c0,0-0.1,0-0.1,0s0,0-0.1,0h0c0,0,0,0,0,0c0,0,0,0,0,0h0c0,0,0,0-0.1,0v0l0,0v0h0l0,0c0,0.1,0.1,0.1,0.1,0.1    c0,0-0.1,0-0.1,0c0,0,0-0.1,0-0.1h0v0.1h0c0.1,0,0,0.1,0,0.1c0,0,0,0,0,0c0,0,0,0,0,0C0.7,2.9,0.8,3,0.8,3l0,0c0,0,0,0.1,0,0l0,0    c0,0-0.1,0.1,0,0.1l-0.1,0l0.1,0.1l0,0l0,0l0.1,0l0.3,0.1c-0.1,0-0.2-0.1-0.3-0.1c0,0-0.1,0-0.1,0h0c0,0-0.1,0-0.1-0.1    c0,0,0,0,0,0c0,0,0.1,0,0.1,0c-0.1,0,0,0-0.1,0l0.1,0l-0.1,0l0,0.1l-0.1,0v0h0c0,0,0.1,0.1,0.1,0.1c0,0-0.1,0-0.1,0    c0,0,0.1,0,0.1,0.1l0,0l0.1,0c0,0,0.1,0,0.1,0.1S1,3.6,1.1,3.7c0.1,0.1,0.2,0.1,0.3,0.1L1.2,3.7l0.1,0.1C1.2,3.8,1.1,3.7,1,3.7    C1,3.6,0.9,3.6,0.8,3.6l-0.1,0c0,0,0,0,0,0c0,0,0,0,0,0l0,0c0,0-0.1-0.1-0.1-0.1c0,0,0,0,0,0c0,0,0,0,0,0c0,0,0,0,0,0l0,0.1    c0,0,0,0.1,0.1,0.1V3.5c0,0,0.1,0.1,0.1,0.1c0,0,0,0-0.1,0v0c0,0,0,0.1,0,0.1c0,0-0.1,0,0,0c0,0,0.1,0,0.1,0    c0.1,0,0.2,0.1,0.3,0.1C1.1,3.9,1.2,4,1.3,4c0,0-0.3-0.1-0.5-0.1c0,0-0.1,0-0.1,0l0,0c0,0,0,0,0,0c0,0,0,0,0,0c0,0,0,0-0.1,0l0,0    c0,0,0,0,0,0c0,0,0,0,0,0c0,0,0,0,0,0c0,0,0,0,0,0c0,0,0.1,0.1,0.2,0.1c0,0-0.1,0-0.1-0.1c0,0-0.1,0-0.1,0c0,0,0,0.1-0.1,0.1h0v0    c0,0,0,0,0,0c0,0,0,0,0,0.1c0,0,0,0,0-0.1c0,0,0,0,0,0c0,0,0,0,0,0h0c0,0,0.1,0,0.1,0.1C0.9,4.1,1,4.2,1,4.2    c0.1,0.1-0.2-0.1-0.2-0.1c-0.1,0,0.5,0.3,0.2,0.2C0.9,4.3,0.8,4.3,0.6,4.2c-0.1-0.1,0.1,0,0.1,0l-0.1,0c-0.1,0-0.1-0.1,0-0.1H0.6    c0,0,0,0,0,0l0,0c0,0,0,0.1-0.1,0.1v0l0,0c0,0,0,0,0.1,0l0,0c0.1,0.1,0.2,0.1,0.3,0.1C0.9,4.4,1,4.5,0.9,4.5L0.7,4.4    c0.1,0,0.1,0,0.1,0c0.1,0.1-0.3-0.1,0,0.1l0.1,0C1,4.5,1.1,4.6,1.1,4.6c0.1,0,0.1,0,0.2,0.1C1,4.6,1.4,4.7,1.1,4.5    c0.1,0,0.3,0.1,0.4,0.1c-0.1,0-0.1-0.1-0.1-0.1c0,0,0,0-0.1,0l0,0c0,0-0.1,0-0.1,0C1,4.5,1.1,4.4,1,4.4c0,0,0.1,0,0.1,0.1L1,4.4    c0.1,0,0.2,0.1,0.3,0.1l0,0c0.1,0,0.1,0,0.1,0c0.1,0-0.1-0.1,0,0L1.4,4.4l0,0c0.1,0-0.2-0.2,0.1-0.1c0,0-0.1-0.1,0-0.1l0.1,0.1    c0,0,0.2,0,0-0.1c0.4,0.1,0.2,0,0.3,0L1.8,4.2c0,0,0-0.1-0.1-0.1L1.5,4c-0.1-0.1,0.2,0,0.2,0c0.1,0,0.1,0,0,0    c0.5,0.1-0.3-0.2,0.1-0.1c-0.1,0,0,0,0,0l0,0c0,0,0.1,0,0.1,0c0,0-0.1,0-0.1,0L1.8,3.7L2,3.8l0,0c0.1,0-0.1-0.1-0.3-0.1    c0,0-0.1,0-0.1-0.1c0.4,0.1-0.1-0.1,0.3,0.1C1.7,3.6,1.6,3.5,1.4,3.5c0,0,0.1,0,0.1,0c0.1,0,0.1,0,0,0l0.3,0.1L1.4,3.4    c0.2,0,0.3,0.1,0.5,0.2C1.6,3.4,1.8,3.5,1.4,3.3l0.2,0.1c0,0-0.2-0.1-0.1-0.1c0.4,0.1,0.1-0.1,0.5,0C1.4,3.1,2.3,3.4,1.8,3.2    c0.1,0,0.2,0.1,0.3,0.1C2,3.2,2.4,3.4,2,3.2c0.1,0.1,0.2,0.1,0.3,0.1c0,0-0.1-0.1,0,0c0.1,0,0.1,0.1,0.2,0.1    C2.2,3.2,1.9,3.1,1.6,3C1.8,3,1.8,3,1.5,2.9C1.7,3,1.8,3,1.8,3c0,0,0.2,0-0.1-0.1c0.1,0,0,0,0,0c0,0,0.1,0,0-0.1H1.7    C1.3,2.7,1.6,2.8,1.6,2.7l0,0c0.3,0.1-0.1-0.1,0.2,0L1.6,2.7c-0.5-0.2,0.3,0.1,0.1,0L1.6,2.6c0.3,0.1,0.5,0.2,0.8,0.3    c0,0,0.1,0,0.1,0.1C2.8,3,2.2,2.8,2.1,2.7c0.2,0.1,0.4,0.2,0.4,0.2C2.7,3,2,2.6,2.4,2.7C2.3,2.7,2.1,2.6,2,2.6    c0,0,0.5,0.1,0.1-0.1c0,0,0.1,0,0.1,0C2.1,2.5,2,2.4,1.9,2.3c0.8,0.3-0.4-0.3,0.4,0l0-0.1l0.1,0c0.1,0-0.1-0.1-0.3-0.2    c0.1,0,0.1,0.1,0.1,0.1c0.1,0,0.1,0-0.2-0.2l0.2,0.1C2.1,2,2.5,2.2,2.3,2c0,0,0.1,0,0.1,0.1C2.2,1.9,3,2.2,2.3,1.8L2.1,1.7    C2,1.7,1.8,1.5,1.6,1.5c0,0,0.2,0.1,0.3,0.1h0c0.4,0.2,0.1,0,0.4,0.1c0-0.1,0.2-0.1,0.2-0.2L2.2,1.4l0,0c0.1,0,0.2,0.1,0.2,0.1    c0.1,0.1-0.1-0.1-0.2-0.1c0.1,0,0.2,0.1,0.3,0.1l0,0h0C2.4,1.4,2.3,1.3,2.3,1.3c0.1,0,0.1,0,0.2,0.1l0,0l0,0L2.3,1.3    c-0.1-0.1,0,0-0.2-0.1c0.4,0.1,0.1-0.1,0.2-0.1C2.3,1,2.3,1,2.3,1C2.2,1,2.1,1,2,0.9c0.4,0.2,0.2,0,0.4,0.1C2.3,1,2.4,1,2.2,0.9    c0.1,0,0.2,0,0.2,0.1c-0.1-0.1,0.1-0.1,0-0.2c0,0-0.1,0-0.1-0.1l0.2,0c0,0-0.2-0.1-0.1-0.1c0,0-0.1,0-0.1,0c0.1,0,0-0.1,0-0.2    c0-0.1,0-0.1,0-0.2c0,0,0,0,0,0c0,0,0,0-0.1,0c0,0,0,0,0,0c0,0,0,0,0,0c0,0,0-0.1-0.1-0.1v0c0,0-0.1,0-0.1,0c0,0-0.1,0-0.1,0.1h0    v0.1l0,0C2,0.3,2,0.3,2,0.4h0c0,0,0,0,0,0c0,0,0,0,0,0c0,0,0,0,0,0c0,0-0.1,0.1-0.1,0.1c0,0,0,0,0,0h0v0c0,0,0,0.1,0,0.1l0,0    c0,0.1-0.1,0.1-0.1,0.2l0,0c0,0.1,0,0,0,0.1l0,0v0c0,0,0,0,0,0c0,0.1,0,0,0,0.1h0c0,0,0,0,0,0.1c0,0,0,0,0,0C1.7,1,1.7,1,1.7,1    c0,0,0.1,0,0.1,0c0,0,0,0,0,0.1s-0.1,0-0.1,0l0,0c0,0,0,0,0,0.1c0,0,0,0,0,0v0c0,0,0,0.1,0,0.1v0c0,0,0,0,0,0c0,0,0-0.1,0-0.1    c0,0,0,0.1,0,0c0.1,0,0,0,0,0.1h0v0l0,0c0,0,0,0,0,0.1c0-0.1,0,0,0.1,0c0,0.1-0.1,0-0.1,0.1c0,0,0,0,0,0l0,0c0,0,0,0,0,0    c0,0,0,0,0,0.1h0c0,0,0.1,0,0,0.1l0,0v0l0,0c0,0,0,0,0,0.1c0,0,0,0,0,0c0,0,0,0,0,0c0,0,0,0,0,0c0,0,0,0,0,0l0,0c0,0,0,0,0,0.1    l0,0l0,0.1h0v0c0,0,0,0,0,0c0,0,0,0,0,0v0.1h0c0,0,0,0.1,0,0.1v0c0,0-0.1,0,0,0.1L1.1,1.9C1.2,2,1.3,1.9,1.3,2    C1.3,2,1.2,2,1.1,1.9C1.1,1.9,1.2,1.9,1.1,1.9L1.1,1.9z M1.2,4.5L1.2,4.5C1.2,4.5,1.2,4.5,1.2,4.5L1.2,4.5z M1,4.5    C1.1,4.5,1.1,4.5,1,4.5L1,4.5C1.1,4.5,1,4.5,1,4.5L1,4.5z M2.3,1.4L2.3,1.4C2.3,1.3,2.3,1.3,2.3,1.4L2.3,1.4z"/>
		<path class="st1" d="M0.9,2.7"/>
		<path class="st1" d="M1.2,1.7"/>
		<path class="st1" d="M0.4,3.7"/>
		<path class="st1" d="M1.2,4.7L1.2,4.7L1.2,4.7C1.1,4.7,1.1,4.7,1.2,4.7z"/>
		<path class="st1" d="M0.2,4.5L0.2,4.5L0.2,4.5C0.3,4.5,0.2,4.5,0.2,4.5z"/>
		<path class="st1" d="M0.7,4.5C0.5,4.5,0.6,4.5,0.7,4.5L0.7,4.5C0.8,4.6,0.7,4.6,0.7,4.5z"/>
		<path class="st1" d="M0.6,4.5"/>
		<path class="st1" d="M1.1,4.5c0,0,0.2,0.1,0.1,0.1C1.4,4.7,1,4.5,1.1,4.5z"/>
		<path class="st1" d="M0.3,4.4l0.1,0.1L0.3,4.4L0.3,4.4z"/>
		<path class="st1" d="M0.4,4.3L0.4,4.3C0.4,4.3,0.4,4.3,0.4,4.3C0.4,4.3,0.5,4.3,0.4,4.3z"/>
		<path class="st1" d="M0.4,4.3"/>
		<path class="st1" d="M0.3,4.3"/>
		<path class="st1" d="M0.6,4.1L0.6,4.1c-0.1,0-0.1-0.1-0.1-0.1C0.5,4.1,0.5,4.1,0.6,4.1z"/>
		<path class="st1" d="M0.3,4.1"/>
		<path class="st1" d="M0.4,4C0.3,4,0.3,4,0.4,4C0.3,4,0.3,4,0.4,4z"/>
		<path class="st1" d="M0.5,3.7L0.5,3.7l0.3,0.1L0.7,3.7L0.5,3.7L0.5,3.7z"/>
		<path class="st1" d="M0.5,3.3C0.5,3.4,0.6,3.4,0.5,3.3L0.5,3.3L0.5,3.3z"/>
		<path class="st1" d="M0.6,3.4"/>
		<path class="st1" d="M2.2,0.1"/>
		<path class="st1" d="M2.2,0"/>
		<path class="st1" d="M0.9,2.3"/>
		<path class="st1" d="M1,2L1,2L1,2L1,2z"/>
		<path class="st1" d="M1.1,1.8"/>
	</g>
	<g transform="translate(43.224 1.032)">
		<path class="st1" d="M6.2,3"/>
		<path class="st1" d="M6.1,2.7L6.1,2.7L6.1,2.7L6.1,2.7z"/>
		<path class="st1" d="M6,2.3c0,0,0.1,0.1,0.1,0.2l0,0l0,0C6.1,2.5,6,2.4,6,2.3z"/>
		<path class="st1" d="M6,2.1C6,2.2,6,2.1,6,2.1L6,2.1L6,2.1z"/>
		<path class="st1" d="M6,2.2C6,2.2,6,2.2,6,2.2z"/>
		<path class="st1" d="M5.9,2L5.9,2C6,2,6,2,5.9,2z"/>
		<path class="st1" d="M5.9,2L5.9,2C5.9,2,5.9,2,5.9,2z"/>
		<path class="st1" d="M6,2.1L6,2.1C5.9,2,5.9,2,6,2.1z"/>
		<path class="st1" d="M6,2.1L6,2.1C6,2.2,6,2.2,6,2.1z"/>
		<path class="st1" d="M6,2.3L6,2.3L6,2.3C6,2.4,6,2.3,6,2.3z"/>
		<path class="st1" d="M5.8,1.7C5.8,1.7,5.8,1.7,5.8,1.7L5.8,1.7L5.8,1.7L5.8,1.7z"/>
		<path class="st1" d="M5.8,1.8L5.8,1.8L5.8,1.8z"/>
		<path class="st1" d="M5.9,2L5.9,2L5.9,2L5.9,2z"/>
		<path class="st1" d="M5.7,1.5L5.7,1.5z"/>
		<path class="st1" d="M5.6,1.4C5.6,1.4,5.6,1.4,5.6,1.4C5.6,1.3,5.6,1.3,5.6,1.4C5.6,1.3,5.6,1.4,5.6,1.4z"/>
		<path class="st1" d="M5.5,1.3C5.5,1.3,5.5,1.3,5.5,1.3C5.5,1.3,5.5,1.3,5.5,1.3z"/>
		<path class="st1" d="M5.7,1.7L5.7,1.7z"/>
		<path class="st1" d="M5.7,1.6L5.7,1.6C5.7,1.6,5.7,1.6,5.7,1.6L5.7,1.6L5.7,1.6z"/>
		<path class="st1" d="M5.7,1.7"/>
		<path class="st1" d="M5.8,1.9C5.8,1.8,5.7,1.8,5.8,1.9C5.8,1.9,5.7,1.8,5.8,1.9z"/>
		<path class="st1" d="M5.7,1.7C5.7,1.7,5.7,1.7,5.7,1.7C5.7,1.8,5.7,1.7,5.7,1.7C5.7,1.7,5.7,1.7,5.7,1.7z"/>
		<path class="st1" d="M5.7,1.7L5.7,1.7L5.7,1.7L5.7,1.7z"/>
		<path class="st1" d="M5.5,1.4C5.5,1.4,5.5,1.4,5.5,1.4C5.5,1.4,5.5,1.4,5.5,1.4C5.5,1.4,5.6,1.4,5.5,1.4z"/>
		<path class="st1" d="M5.6,1.5"/>
		<path class="st1" d="M5.2,1.1"/>
		<path class="st1" d="M5.5,1.4C5.5,1.5,5.6,1.5,5.5,1.4C5.6,1.5,5.5,1.5,5.5,1.4z"/>
		<path class="st1" d="M5.4,1.2C5.4,1.3,5.4,1.3,5.4,1.2C5.5,1.3,5.4,1.3,5.4,1.2z"/>
		<path class="st1" d="M5.6,1.5"/>
		<path class="st1" d="M5.6,1.5L5.6,1.5z"/>
		<path class="st1" d="M5,1.3c0,0,0.1,0,0.1,0.1c0,0,0,0,0,0c0.1,0,0.1-0.1,0.1-0.2c0,0,0,0-0.1,0c0,0,0.1,0.1,0,0.1    C5.1,1.3,5.1,1.3,5,1.3C5.1,1.3,5.1,1.3,5,1.3C5,1.3,5,1.3,5,1.3C5,1.3,5,1.3,5,1.3C5,1.4,5,1.4,5,1.3C5,1.3,5,1.3,5,1.3L5,1.3z"/>
		<path class="st1" d="M5.3,1.2L5.3,1.2L5.3,1.2L5.3,1.2L5.3,1.2z"/>
		<path class="st1" d="M5.4,1.3C5.4,1.4,5.3,1.3,5.4,1.3C5.4,1.4,5.4,1.4,5.4,1.3C5.3,1.3,5.5,1.4,5.4,1.3L5.4,1.3    C5.5,1.3,5.5,1.3,5.4,1.3L5.4,1.3C5.5,1.3,5.5,1.3,5.4,1.3L5.4,1.3C5.4,1.3,5.4,1.3,5.4,1.3L5.4,1.3C5.4,1.3,5.4,1.3,5.4,1.3    C5.4,1.3,5.4,1.3,5.4,1.3z"/>
		<path class="st1" d="M5.7,1.9"/>
		<path class="st1" d="M5.7,1.8C5.7,1.8,5.7,1.8,5.7,1.8C5.7,1.8,5.7,1.8,5.7,1.8C5.7,1.9,5.7,1.8,5.7,1.8C5.7,1.8,5.7,1.9,5.7,1.8    L5.7,1.8C5.7,1.8,5.7,1.7,5.7,1.8L5.7,1.8z"/>
		<path class="st1" d="M5.5,1.6C5.5,1.5,5.5,1.5,5.5,1.6L5.5,1.6C5.5,1.6,5.5,1.6,5.5,1.6z"/>
		<path class="st1" d="M5.2,1.1L5.2,1.1C5.2,1.1,5.2,1.1,5.2,1.1L5.2,1.1z"/>
		<path class="st1" d="M5.2,1L5.2,1L5.2,1L5.2,1z"/>
		<path class="st1" d="M2,4.7"/>
		<path class="st1" d="M1.9,4.5"/>
		<path class="st1" d="M1.7,0.7C1.6,0.6,1.4,0.4,1.5,0.6L1.7,0.7C1.6,0.6,1.7,0.6,1.7,0.7z"/>
		<path class="st1" d="M1.5,3.1L1.5,3.1C1.4,3.1,1.4,3.1,1.5,3.1C1.4,3.1,1.4,3.1,1.5,3.1z"/>
		<path class="st1" d="M1.6,3.2L1.6,3.2C1.6,3.2,1.6,3.2,1.6,3.2z"/>
		<path class="st1" d="M2.8,5.3L2.8,5.3C2.8,5.2,2.8,5.3,2.8,5.3z"/>
		<path class="st1" d="M3.9,0.4C3.9,0.3,3.8,0.3,3.9,0.4C3.8,0.4,3.9,0.5,3.9,0.4z"/>
		<path class="st1" d="M1,5.3c0,0,0.1,0,0.1-0.1C1.1,5.3,1,5.3,1,5.3z"/>
		<path class="st1" d="M3.7,0.3L3.7,0.3c0.1,0,0.1,0,0.1,0C3.7,0.2,3.7,0.2,3.7,0.3z"/>
		<path class="st1" d="M5.8,4.4"/>
		<path class="st1" d="M6.2,3.4L6.2,3.4z"/>
		<path class="st1" d="M4.7,0.7C4.7,0.7,4.7,0.6,4.7,0.7z"/>
		<path class="st1" d="M4.7,1"/>
		<path class="st1" d="M3.4,1"/>
		<path class="st1" d="M4.7,0.7L4.7,0.7C4.7,0.7,4.7,0.7,4.7,0.7z"/>
		<path class="st1" d="M4.7,0.7L4.7,0.7C4.8,0.7,4.8,0.7,4.7,0.7z"/>
		<path class="st1" d="M4.7,0.6C4.7,0.6,4.7,0.7,4.7,0.6C4.7,0.7,4.7,0.7,4.7,0.6L4.7,0.6C4.7,0.7,4.7,0.6,4.7,0.6L4.7,0.6z"/>
		<path class="st1" d="M4.4,5.5"/>
		<path class="st1" d="M2,2"/>
		<path class="st1" d="M2,2.1C2,2,2,2,2,2.1l0-0.1L2,2.1z"/>
		<path class="st1" d="M2.3,5L2.3,5C2.4,5,2.4,5,2.3,5c0,0-0.1-0.2-0.1-0.1v0l0,0c0-0.1-0.1,0-0.1-0.1c0,0,0-0.1,0,0L2,4.7l0,0    c0,0,0-0.1-0.1-0.1l0,0c0,0,0,0-0.1,0c0,0,0,0,0,0L1.9,4.5c0,0,0.1,0,0.1,0c0-0.1-0.1,0-0.1-0.2l0,0.1c0-0.1,0-0.1,0-0.1    c0,0,0,0.1-0.1,0.1c0,0,0,0,0-0.1c0,0,0,0,0-0.1h0L1.8,4.1c0-0.1,0-0.1,0-0.1c0-0.1,0,0.1-0.1,0c0-0.1,0-0.1-0.1-0.2    c0-0.1,0,0,0,0l0,0l0,0c0,0,0,0-0.1-0.1c-0.1,0,0-0.1,0-0.2c0,0,0,0,0,0L1.6,3.3l0-0.1c0,0.1-0.1,0-0.1-0.1H1.3    C1.2,3.1,1.2,3.1,1.1,3c0.1,0,0.2,0,0.3,0.1c0,0-0.1,0-0.1,0h0.2l0,0l0,0l0.1,0.1v0h0v0l0.1,0h0l0-0.1c0-0.1-0.1-0.2-0.1-0.3    c0,0,0.1,0,0.1,0c-0.1,0,0,0.1,0,0.2c0,0,0,0,0,0V2.7c0,0,0,0,0.1-0.1c-0.1,0,0-0.1,0-0.1c0,0,0,0,0,0.1c0.1-0.1,0-0.1,0-0.1v0    c0,0,0.1-0.1,0.1-0.1l0,0C1.9,2.3,2,2.1,2,2.1L2,2.1V1.9L1.8,1.9L1.6,1.7c0.1,0.1,0.2,0.1,0.3,0.2c0,0,0.1,0,0.1,0.1h0    c0,0,0.1,0,0,0.1C2,2,2,1.9,2,1.9c0,0-0.1,0-0.1,0c0,0,0.1,0,0.1-0.1c0,0,0,0,0-0.1c0,0,0,0,0,0c0,0,0.1,0,0,0.1c0,0,0-0.1,0-0.1    c0,0,0,0,0.1,0c0,0,0.1-0.1,0.1-0.1l0,0c0.1-0.1,0-0.1,0.1-0.2c0,0,0,0.1,0.1,0.1c0,0,0-0.1,0-0.1l0,0c0,0,0,0,0,0l0,0    c0,0,0-0.1,0-0.1c0-0.1-0.1-0.1-0.1-0.2c0-0.1,0-0.2-0.1-0.2l0.1,0.1c0-0.1,0-0.1,0-0.2c0,0.1,0.1,0.2,0.1,0.3    c0,0.1,0,0.1,0.1,0.2c0,0,0,0.1,0,0.1v0c0,0,0,0.1-0.1,0.1c0,0,0,0,0.1,0c0,0,0,0,0,0.1l0.1-0.1c0,0,0.1-0.1,0.1-0.1L2.6,1.5    c0,0,0-0.1,0.1-0.2c0,0,0,0.1,0,0.1c0,0,0.1-0.1,0.1-0.1l0,0c0.1,0,0.1-0.1,0.1-0.1H3c0,0-0.1,0-0.1-0.1l0,0l0-0.1    c0-0.1,0-0.1-0.1-0.2c0-0.1,0-0.2-0.1-0.2C2.9,0.8,3,0.9,3.1,1c0,0,0,0,0,0.1l0,0v0c0,0,0,0,0,0.1l0,0c0,0,0,0,0.1,0    c0,0,0.1,0,0,0c0.1,0,0.1,0,0.1,0c0,0,0,0,0-0.1c0,0,0-0.1,0.1-0.1c0,0,0,0.1,0,0.1c0.1,0,0.2,0,0.3,0c0,0,0.1,0,0,0h0.1    c0.1,0-0.1,0,0,0c0,0,0.1,0,0.1,0c0,0-0.1,0-0.1,0c0,0,0.1-0.3,0.2-0.3c0.1,0,0,0.1,0.1,0.1c0.2,0.1,0.2-0.3,0.3-0.1    c0,0.1,0,0.2-0.1,0.3C4.3,1,4.3,0.9,4.2,0.9l0.1,0.1c0,0-0.1,0.1-0.1,0c0,0,0,0,0.1,0c0,0,0.1,0,0.1,0c0.1,0,0.2,0,0.2,0.1    c0,0,0.1,0,0.1,0h0C4.6,1,4.7,1,4.7,0.9c0.1,0,0.1-0.1,0.2,0l0,0.1c0,0,0-0.1-0.1-0.1c0.1,0,0.1,0.2,0.1,0.1l0-0.1    C5,1,5.1,0.9,5.1,1c0-0.1,0,0,0-0.1C5.1,1,5,0.8,5,0.9c0-0.1-0.1-0.1-0.1-0.2c0,0,0,0.1-0.1,0l0,0l0,0v0.1c-0.1,0.1-0.1,0-0.2,0    c0,0,0,0,0-0.1c0,0,0,0-0.1,0c0-0.1-0.1-0.2,0-0.2l-0.1,0c0-0.1-0.1-0.1-0.1-0.1c0,0-0.1,0.1-0.1,0H4.1v0C4,0.4,3.9,0.5,3.7,0.3    c-0.1,0-0.1,0.1-0.2,0l0-0.1c-0.1,0-0.2-0.1-0.2,0C3.2,0.1,3.1,0,3,0C2.9,0,2.8,0,2.8,0l0.1,0.1c-0.1,0-0.1,0.1-0.2,0.1l0.1,0.1    c0,0.1-0.2-0.1-0.4,0c0-0.1,0-0.1,0.1,0C2.2,0.3,2.1,0.4,2.1,0.5c0,0.1-0.1,0.2-0.2,0.1c0,0.1,0,0.1-0.1,0h0c0,0-0.1,0-0.1-0.1    c0,0,0.1,0,0.1,0.1c0,0-0.1,0.1-0.1,0.1L1.5,0.6l0,0c-0.1,0,0,0.1,0.1,0.2c0,0,0,0.1,0,0.1c-0.2-0.2,0,0.1-0.3-0.1    C1.5,1,1.3,1.1,1.6,1.4c0,0-0.1,0-0.1-0.1c-0.1,0-0.1,0-0.1,0.1L1.3,1.2c0.1,0.1,0.1,0.2,0.2,0.3c-0.2,0-0.3-0.1-0.4-0.3    c0.2,0.3,0,0.2,0.2,0.4l-0.1,0c0,0,0.2,0.2,0,0.2S1,1.9,0.9,2C0.8,2.2,0.7,2.3,0.5,2.4c0.6,0.1-0.3,0,0.1,0.2    c-0.1,0-0.2,0-0.3-0.1c0.1,0.2-0.3,0.2,0.1,0.3c-0.1,0-0.2-0.1-0.3-0.1c0,0,0.1,0.1,0,0.1C0.1,2.8,0,2.7,0,2.7    C0,2.9,0.4,2.9,0.9,3C0.6,3,0.7,3.1,0.9,3.1c-0.1,0-0.3,0.1-0.3,0c0,0-0.2,0.3,0.1,0.3c-0.1,0,0,0.1,0,0.1c0,0.1-0.1,0.1,0,0.2    l0.1,0c0.4,0,0.1,0.1,0.1,0.1h0C0.7,4,1.1,3.8,0.8,4.1L1,4c0.3-0.1,0.2,0,0.1,0.1C1,4.2,0.9,4.2,1,4.3l0.1-0.1    c0.2,0-0.6,0.4-0.7,0.5c0,0-0.1,0-0.1,0C0.1,5,0.6,4.6,0.8,4.7C0.6,4.7,0.3,4.8,0.3,4.9C0.3,5,0.5,5,0.6,5s0.3,0,0.1,0.2    C0.8,5,1,5,1.1,5c0.1,0-0.3,0.5,0.1,0.3L1.1,5.3c0.2,0,0.3,0,0.5-0.1c-0.3,0.3-0.1,0.3,0,0.3c0.1,0,0.3-0.1,0,0.2l0.2,0.1L1.8,5.9    C1.9,6,2,5.9,2.1,5.7c0,0.1-0.1,0.1-0.1,0.1C2.1,6.1,2.1,6,2.4,5.8L2.4,6C2.4,6,2.4,6.1,2.5,6.2s0.1,0.2,0.3,0.1    c0,0,0,0.1-0.1,0.1C2.8,6.2,2.9,6.4,3,6.5s0.2,0.1,0.3-0.2l0.1-0.1C3.3,6,3.5,5.8,3.4,5.7c0.1,0,0.1,0.2,0,0.2v0    C3.4,6.2,3.7,6,3.6,6.2c0.3,0,0.6,0,0.9-0.1L4.4,6c0,0,0.1,0,0.1,0c0,0,0.1,0.1,0,0.1C4.6,6.2,4.6,6,4.6,5.9c0.1,0,0,0.2,0.1,0.2    l0.1,0h0c0-0.1,0-0.1,0.1-0.2C4.9,5.9,4.9,6,4.9,6h0L5,6L4.9,5.9c0-0.1,0.1-0.1,0-0.1c0.1,0.1,0.4-0.2,0.4-0.2    c0-0.1,0.1-0.1,0.1-0.2c0,0-0.1-0.1,0-0.1c0.1,0.2,0.1,0,0.3,0c-0.1,0,0.1-0.2,0-0.2c0,0,0,0,0.1,0C5.9,5,6,4.9,6.1,4.7    c0,0,0,0,0,0c0,0,0,0,0,0c0,0,0.1,0,0.1-0.1c0,0-0.1-0.1,0-0.1h0c0.1-0.3,0.2-0.6,0.2-1v0c0,0,0,0,0,0c0-0.1,0-0.1,0-0.1    c0,0,0-0.1,0-0.2v0c0-0.1,0,0.1-0.1,0.1c0,0.1,0,0.2,0,0.3c0,0,0,0,0,0v0.1l0,0c0,0.1-0.1,0.3-0.1,0.4h0c0,0,0,0,0,0.1    c0,0.1,0-0.1,0.1-0.1c0,0-0.1,0.3-0.1,0.3c0,0.1,0,0,0,0.1h0v0c0,0,0,0.1-0.1,0c0,0,0,0,0,0l0,0c0,0-0.1,0.1-0.1,0.1l0-0.1    C5.8,4.7,5.7,4.9,5.6,5l0,0C5.5,5.1,5.5,5.1,5.4,5.2l0,0c0,0,0,0.1-0.1,0.1c0,0-0.1,0,0,0c-0.1,0.1,0,0.1-0.1,0.1h0L5.2,5.4    c0,0-0.1,0,0,0C5.1,5.4,5,5.5,4.9,5.5c0,0.1,0.1,0,0.1,0c0,0,0,0.1-0.1,0.1c0,0-0.1,0-0.2,0h0c0,0-0.1,0.1-0.1,0    c0,0-0.1,0-0.1,0.1l0.1,0c-0.1,0-0.1,0.1-0.2,0.1c0,0,0,0,0.1,0c0,0-0.1,0-0.1,0c0,0,0.1,0,0.2-0.1c0,0-0.1,0.1-0.1,0    c0,0.1-0.1,0-0.2,0.1v0c0,0,0,0-0.1,0l0,0c-0.1,0-0.1,0-0.2,0c0.1,0,0,0,0.1,0c-0.1,0-0.1-0.1-0.3,0c0,0,0.1,0,0.1,0    c0,0-0.1,0-0.1,0c-0.1,0,0,0,0,0c0,0-0.1,0-0.1,0v0c-0.1,0,0,0.1-0.1,0l0.1,0H3.6l0,0c-0.1,0-0.1,0-0.1,0c0,0,0,0-0.1,0    c0,0,0,0-0.1,0c0,0,0.1,0,0.1,0c0,0,0,0,0,0c0,0,0,0,0,0c0,0-0.1,0-0.1,0H3.3c0,0,0,0,0,0H3.2c0,0,0,0,0.1,0l-0.1,0l0,0    c-0.1,0-0.1,0-0.2-0.1h0C2.9,5.3,2.8,5.2,2.7,5.2l0-0.1c-0.1,0,0,0.1-0.1,0c-0.1,0,0,0,0-0.1C2.5,5.1,2.4,5.1,2.3,5    C2.3,5,2.3,5,2.3,5z M1.8,4.3C1.8,4.3,1.8,4.3,1.8,4.3C1.8,4.3,1.8,4.3,1.8,4.3z M1.5,3L1.5,3z M4.5,0.6L4.5,0.6    C4.5,0.6,4.5,0.6,4.5,0.6C4.5,0.6,4.5,0.7,4.5,0.6L4.5,0.6z"/>
		<path class="st1" d="M1.6,3.2L1.6,3.2C1.5,3.2,1.6,3.2,1.6,3.2z"/>
		<path class="st1" d="M2.8,5.3"/>
		<path class="st1" d="M3.2,1.2L3.2,1.2z"/>
		<path class="st1" d="M5,0.8L5,0.8C5,0.8,5,0.8,5,0.8C5,0.8,5,0.8,5,0.8C5,0.8,5,0.8,5,0.8z"/>
		<path class="st1" d="M5.2,1.4C5.2,1.4,5.2,1.4,5.2,1.4L5.2,1.4C5.2,1.4,5.2,1.4,5.2,1.4z"/>
		<path class="st1" d="M4.9,1C4.9,1.1,5,1.1,4.9,1L4.9,1C5,1,5,1,4.9,1z"/>
		<path class="st1" d="M5,1.1C5,1.1,5,1.1,5,1.1C5,1.1,5,1.1,5,1.1C5,1.1,5,1.1,5,1.1z"/>
		<path class="st1" d="M4.6,0.7C4.6,0.7,4.7,0.6,4.6,0.7C4.7,0.6,4.5,0.6,4.6,0.7z"/>
		<path class="st1" d="M4.9,1.2L4.9,1.2L4.9,1.2z"/>
		<path class="st1" d="M4.6,1.1L4.6,1.1C4.7,1.1,4.7,1.1,4.6,1.1L4.6,1.1C4.7,1.1,4.6,1,4.6,1.1z"/>
		<path class="st1" d="M4.7,1.1C4.7,1.1,4.7,1.1,4.7,1.1C4.7,1.1,4.7,1.1,4.7,1.1z"/>
		<path class="st1" d="M4.8,1.2L4.8,1.2L4.8,1.2L4.8,1.2z"/>
		<path class="st1" d="M4,0.9L4,0.9C3.9,0.9,3.9,0.9,4,0.9C4,0.9,4,0.9,4,0.9z"/>
		<path class="st1" d="M4.2,1"/>
		<path class="st1" d="M4,1C4,1,3.9,1,4,1C4,1,4,1,4,1z"/>
		<path class="st1" d="M3,1.1L3,1.1L3,0.9L3,1L3,1.1L3,1.1z"/>
		<path class="st1" d="M2.4,1.6C2.4,1.6,2.4,1.6,2.4,1.6C2.4,1.5,2.4,1.6,2.4,1.6C2.4,1.6,2.4,1.6,2.4,1.6z"/>
		<path class="st1" d="M2.4,1.6C2.4,1.6,2.4,1.5,2.4,1.6z"/>
		<path class="st1" d="M6.2,3.2L6.2,3.2z"/>
		<path class="st1" d="M6.2,3.1L6.2,3.1L6.2,3.1C6.2,3.1,6.2,3.1,6.2,3.1z"/>
		<path class="st1" d="M1.8,4.2L1.8,4.2C1.8,4.2,1.8,4.2,1.8,4.2L1.8,4.2z"/>
		<path class="st1" d="M2.1,4.7L2.1,4.7L2.1,4.7z"/>
		<path class="st1" d="M2.5,5C2.5,5,2.5,5,2.5,5C2.5,5,2.5,5.1,2.5,5z"/>
	</g>
	<g transform="translate(52.364 0)">
		<g transform="translate(0 0)">
			<path class="st1" d="M6.2,3"/>
			<path class="st1" d="M6.1,2.7L6.1,2.7L6.1,2.7L6.1,2.7z"/>
			<path class="st1" d="M6,2.3c0,0,0.1,0.1,0.1,0.2l0,0l0,0C6.1,2.4,6,2.4,6,2.3z"/>
			<path class="st1" d="M6,2.1C6,2.1,6,2.1,6,2.1L6,2.1L6,2.1z"/>
			<path class="st1" d="M6,2.2"/>
			<path class="st1" d="M5.9,2L5.9,2C6,2,6,2,5.9,2z"/>
			<path class="st1" d="M5.9,1.9"/>
			<path class="st1" d="M6,2L6,2C5.9,2,5.9,2,6,2z"/>
			<path class="st1" d="M6,2.1L6,2.1C6,2.2,6,2.1,6,2.1z"/>
			<path class="st1" d="M6,2.3L6,2.3L6,2.3C6,2.4,6,2.3,6,2.3z"/>
			<path class="st1" d="M5.8,1.7C5.8,1.7,5.8,1.7,5.8,1.7L5.8,1.7L5.8,1.7L5.8,1.7z"/>
			<path class="st1" d="M5.8,1.7L5.8,1.7L5.8,1.7z"/>
			<path class="st1" d="M5.9,2L5.9,2L5.9,2L5.9,2z"/>
			<path class="st1" d="M5.7,1.5L5.7,1.5z"/>
			<path class="st1" d="M5.6,1.4C5.6,1.4,5.6,1.3,5.6,1.4c0-0.1,0-0.1-0.1-0.1C5.6,1.3,5.6,1.3,5.6,1.4z"/>
			<path class="st1" d="M5.5,1.3C5.5,1.3,5.5,1.3,5.5,1.3C5.5,1.3,5.5,1.3,5.5,1.3z"/>
			<path class="st1" d="M5.7,1.6L5.7,1.6z"/>
			<path class="st1" d="M5.7,1.6L5.7,1.6C5.7,1.6,5.7,1.6,5.7,1.6L5.7,1.6L5.7,1.6z"/>
			<path class="st1" d="M5.7,1.6"/>
			<path class="st1" d="M5.8,1.8C5.8,1.8,5.7,1.8,5.8,1.8C5.8,1.9,5.7,1.8,5.8,1.8z"/>
			<path class="st1" d="M5.7,1.7C5.7,1.7,5.7,1.7,5.7,1.7C5.7,1.7,5.7,1.7,5.7,1.7C5.7,1.7,5.7,1.7,5.7,1.7z"/>
			<path class="st1" d="M5.7,1.7L5.7,1.7L5.7,1.7L5.7,1.7z"/>
			<path class="st1" d="M5.5,1.4C5.5,1.4,5.5,1.4,5.5,1.4C5.5,1.4,5.5,1.4,5.5,1.4C5.5,1.4,5.6,1.4,5.5,1.4z"/>
			<path class="st1" d="M5.6,1.5"/>
			<path class="st1" d="M5.2,1.1L5.2,1.1z"/>
			<path class="st1" d="M5.5,1.4C5.5,1.4,5.5,1.4,5.5,1.4C5.5,1.4,5.5,1.4,5.5,1.4z"/>
			<path class="st1" d="M5.4,1.2C5.4,1.2,5.4,1.2,5.4,1.2C5.5,1.2,5.4,1.2,5.4,1.2z"/>
			<path class="st1" d="M5.6,1.5"/>
			<path class="st1" d="M5.6,1.5L5.6,1.5z"/>
			<path class="st1" d="M5,1.3c0,0,0.1,0,0.1,0.1c0,0,0,0,0,0c0.1,0,0.1-0.1,0.1-0.2c0,0,0,0-0.1,0c0,0,0.1,0.1,0,0.1     C5.1,1.3,5.1,1.2,5,1.3C5.1,1.2,5.1,1.2,5,1.3C5,1.3,5,1.3,5,1.3C5,1.3,5,1.3,5,1.3C5,1.3,5,1.3,5,1.3C5,1.3,5,1.3,5,1.3L5,1.3z"/>
			<path class="st1" d="M5.3,1.2L5.3,1.2L5.3,1.2L5.3,1.2L5.3,1.2z"/>
			<path class="st1" d="M5.4,1.3C5.4,1.3,5.3,1.3,5.4,1.3C5.4,1.4,5.4,1.4,5.4,1.3C5.3,1.3,5.5,1.4,5.4,1.3L5.4,1.3     C5.5,1.3,5.5,1.3,5.4,1.3L5.4,1.3C5.5,1.3,5.5,1.3,5.4,1.3L5.4,1.3C5.4,1.2,5.4,1.3,5.4,1.3L5.4,1.3C5.4,1.3,5.4,1.2,5.4,1.3     C5.4,1.2,5.4,1.2,5.4,1.3z"/>
			<path class="st1" d="M5.7,1.8"/>
			<path class="st1" d="M5.7,1.8C5.7,1.8,5.7,1.8,5.7,1.8C5.7,1.8,5.7,1.8,5.7,1.8C5.7,1.8,5.7,1.8,5.7,1.8C5.7,1.8,5.7,1.8,5.7,1.8     L5.7,1.8C5.7,1.8,5.7,1.7,5.7,1.8L5.7,1.8z"/>
			<path class="st1" d="M5.5,1.5C5.5,1.5,5.5,1.5,5.5,1.5L5.5,1.5C5.5,1.6,5.5,1.6,5.5,1.5z"/>
			<path class="st1" d="M5.2,1.1L5.2,1.1C5.2,1,5.2,1,5.2,1.1L5.2,1.1z"/>
			<path class="st1" d="M5.2,1L5.2,1L5.2,1L5.2,1z"/>
			<path class="st1" d="M2,4.6"/>
			<path class="st1" d="M1.9,4.5"/>
			<path class="st1" d="M1.7,0.6C1.6,0.6,1.4,0.4,1.5,0.5L1.7,0.6C1.6,0.6,1.7,0.6,1.7,0.6z"/>
			<path class="st1" d="M1.5,3.1L1.5,3.1C1.4,3.1,1.4,3.1,1.5,3.1C1.4,3.1,1.4,3.1,1.5,3.1z"/>
			<path class="st1" d="M1.6,3.1L1.6,3.1C1.6,3.2,1.6,3.2,1.6,3.1z"/>
			<path class="st1" d="M2.8,5.2L2.8,5.2C2.8,5.2,2.8,5.2,2.8,5.2z"/>
			<path class="st1" d="M3.9,0.4C3.9,0.3,3.8,0.3,3.9,0.4C3.8,0.4,3.9,0.4,3.9,0.4z"/>
			<path class="st1" d="M1,5.3c0,0,0.1,0,0.1-0.1C1.1,5.3,1,5.3,1,5.3z"/>
			<path class="st1" d="M3.7,0.3L3.7,0.3c0.1,0,0.1,0,0.1,0C3.7,0.2,3.7,0.2,3.7,0.3z"/>
			<path class="st1" d="M5.8,4.3"/>
			<path class="st1" d="M6.2,3.3L6.2,3.3z"/>
			<path class="st1" d="M4.7,0.6C4.7,0.6,4.7,0.6,4.7,0.6z"/>
			<path class="st1" d="M4.7,1"/>
			<path class="st1" d="M3.4,1"/>
			<path class="st1" d="M4.7,0.7L4.7,0.7C4.7,0.7,4.7,0.7,4.7,0.7z"/>
			<path class="st1" d="M4.7,0.6C4.7,0.7,4.8,0.7,4.7,0.6C4.8,0.7,4.8,0.6,4.7,0.6z"/>
			<path class="st1" d="M4.7,0.6C4.7,0.6,4.7,0.6,4.7,0.6C4.7,0.6,4.7,0.6,4.7,0.6L4.7,0.6C4.7,0.6,4.7,0.6,4.7,0.6     C4.7,0.6,4.7,0.6,4.7,0.6z"/>
			<path class="st1" d="M4.4,5.5"/>
			<path class="st1" d="M2,2"/>
			<path class="st1" d="M2,2C2,2,2,2,2,2l0-0.1L2,2z"/>
			<path class="st1" d="M2.3,5L2.3,5C2.4,4.9,2.4,5,2.3,5c0,0-0.1-0.2-0.1-0.1v0l0,0c0-0.1-0.1,0-0.1-0.1c0,0,0-0.1,0,0L2,4.6l0,0     c0,0,0-0.1-0.1-0.1l0,0c0,0,0,0-0.1,0c0,0,0,0,0,0L1.9,4.5c0,0,0.1,0,0.1,0c0-0.1-0.1,0-0.1-0.2l0,0.1c0-0.1,0-0.1,0-0.1     c0,0,0,0.1-0.1,0.1c0,0,0,0,0-0.1c0,0,0,0,0-0.1h0L1.8,4.1c0-0.1,0-0.1,0-0.1c0-0.1,0,0.1-0.1,0c0-0.1,0-0.1-0.1-0.2     c0-0.1,0,0,0,0l0,0l0,0c0,0,0,0-0.1-0.1c-0.1,0,0-0.1,0-0.2c0,0,0,0,0,0L1.6,3.3l0-0.1c0,0.1-0.1,0-0.1-0.1H1.3     C1.2,3.1,1.2,3,1.1,3c0.1,0,0.2,0,0.3,0.1c0,0-0.1,0-0.1,0h0.2l0,0l0,0l0.1,0.1v0h0v0l0.1,0h0l0-0.1c0-0.1-0.1-0.2-0.1-0.3     c0,0,0.1,0,0.1,0c-0.1,0,0,0.1,0,0.2c0,0,0,0,0,0V2.7c0,0,0,0,0.1-0.1c-0.1,0,0-0.1,0-0.1c0,0,0,0,0,0.1c0.1-0.1,0-0.1,0-0.1v0     c0,0,0.1-0.1,0.1-0.1l0,0C1.9,2.3,2,2.1,2,2L2,2.1V1.9L1.8,1.9L1.6,1.6c0.1,0.1,0.2,0.1,0.3,0.2c0,0,0.1,0,0.1,0.1h0     c0,0,0.1,0,0,0.1c0,0,0-0.1,0.1-0.1c0,0-0.1,0-0.1,0c0,0,0.1,0,0.1-0.1c0,0,0,0,0-0.1c0,0,0,0,0,0c0,0,0.1,0,0,0.1     c0,0,0-0.1,0-0.1c0,0,0,0,0.1,0c0,0,0.1-0.1,0.1-0.1l0,0c0.1-0.1,0-0.1,0.1-0.2c0,0,0,0.1,0.1,0.1c0,0,0-0.1,0-0.1l0,0     c0,0,0,0,0,0l0,0c0,0,0-0.1,0-0.1c0-0.1-0.1-0.1-0.1-0.2c0-0.1,0-0.2-0.1-0.2l0.1,0.1c0-0.1,0-0.1,0-0.2c0,0.1,0.1,0.2,0.1,0.3     c0,0.1,0,0.1,0.1,0.2c0,0,0,0.1,0,0.1v0c0,0,0,0.1-0.1,0.1c0,0,0,0,0.1,0c0,0,0,0,0,0.1l0.1-0.1c0,0,0.1-0.1,0.1-0.1L2.6,1.4     c0,0,0-0.1,0.1-0.2c0,0,0,0.1,0,0.1c0,0,0.1-0.1,0.1-0.1l0,0c0.1,0,0.1-0.1,0.1-0.1H3c0,0-0.1,0-0.1-0.1l0,0l0-0.1     c0-0.1,0-0.1-0.1-0.2c0-0.1,0-0.2-0.1-0.2C2.9,0.8,3,0.9,3.1,1c0,0,0,0,0,0.1l0,0v0c0,0,0,0,0,0.1l0,0c0,0,0,0,0.1,0     c0,0,0.1,0,0,0c0.1,0,0.1,0,0.1,0c0,0,0,0,0-0.1c0,0,0-0.1,0.1-0.1c0,0,0,0.1,0,0.1c0.1,0,0.2,0,0.3,0c0,0,0.1,0,0,0h0.1     c0.1,0-0.1,0,0,0c0,0,0.1,0,0.1,0c0,0-0.1,0-0.1,0c0,0,0.1-0.3,0.2-0.3c0.1,0,0,0.1,0.1,0.1c0.2,0.1,0.2-0.3,0.3-0.1     c0,0.1,0,0.2-0.1,0.3C4.3,1,4.3,0.9,4.2,0.9l0.1,0.1c0,0-0.1,0.1-0.1,0c0,0,0,0,0.1,0c0,0,0.1,0,0.1,0c0.1,0,0.2,0,0.2,0.1     c0,0,0.1,0,0.1,0h0c0-0.1,0.1-0.1,0.1-0.1c0.1,0,0.1-0.1,0.2,0l0,0.1c0,0,0-0.1-0.1-0.1C4.9,0.9,4.9,1.1,5,1l0-0.1     c0.1,0,0.2-0.1,0.2,0c0-0.1,0,0,0-0.1C5.1,1,5,0.7,5,0.9c0-0.1-0.1-0.1-0.1-0.2c0,0,0,0.1-0.1,0l0,0l0,0v0.1     c-0.1,0.1-0.1,0-0.2,0c0,0,0,0,0-0.1c0,0,0,0-0.1,0c0-0.1-0.1-0.2,0-0.2l-0.1,0c0-0.1-0.1-0.1-0.1-0.1c0,0-0.1,0.1-0.1,0H4.1v0     C4,0.3,3.9,0.5,3.7,0.3c-0.1,0-0.1,0.1-0.2,0l0-0.1c-0.1,0-0.2-0.1-0.2,0C3.2,0.1,3.1,0,3,0C2.9,0,2.9,0,2.8,0l0.1,0.1     c-0.1,0-0.1,0.1-0.2,0.1l0.1,0.1c0,0.1-0.2-0.1-0.4,0c0-0.1,0-0.1,0.1,0C2.2,0.3,2.1,0.4,2.1,0.5S2,0.7,1.9,0.6     c0,0.1,0,0.1-0.1,0h0c0,0-0.1,0-0.1-0.1c0,0,0.1,0,0.1,0.1c0,0-0.1,0.1-0.1,0.1L1.5,0.7l0,0c-0.1,0,0,0.1,0.1,0.2     c0,0,0,0.1,0,0.1c-0.2-0.2,0,0.1-0.3-0.1C1.5,1,1.3,1.1,1.6,1.4c0,0-0.1,0-0.1-0.1c-0.1,0-0.1,0-0.1,0.1L1.3,1.2     c0.1,0.1,0.1,0.2,0.2,0.3c-0.2,0-0.3-0.1-0.4-0.3c0.2,0.3,0,0.2,0.2,0.4L1.2,1.7c0,0,0.2,0.2,0,0.2S1,1.9,0.9,2     C0.8,2.1,0.7,2.3,0.5,2.3c0.6,0.1-0.3,0,0.1,0.2c-0.1,0-0.2,0-0.3-0.1c0.1,0.2-0.3,0.2,0.1,0.3c-0.1,0-0.2-0.1-0.3-0.1     c0,0,0.1,0.1,0,0.1C0.1,2.7,0,2.7,0,2.7C0,2.8,0.4,2.9,0.9,3C0.6,3,0.7,3,0.9,3.1c-0.1,0-0.3,0.1-0.3,0c0,0-0.2,0.3,0.1,0.3     c-0.1,0,0,0.1,0,0.1c0,0.1-0.1,0.1,0,0.2l0.1,0c0.4,0,0.1,0.1,0.1,0.1h0C0.7,4,1.1,3.8,0.8,4L1,4C1.3,3.9,1.2,4,1.1,4     C1,4.1,0.9,4.2,1,4.2l0.1-0.1c0.2,0-0.6,0.4-0.7,0.5c0,0-0.1,0-0.1,0c-0.2,0.3,0.3-0.1,0.4,0C0.6,4.7,0.3,4.8,0.4,4.9     C0.3,4.9,0.5,4.9,0.6,4.9s0.3,0,0.1,0.2C0.8,5,1,4.9,1.1,4.9c0.1,0-0.3,0.5,0.1,0.3L1.1,5.3c0.2,0,0.3,0,0.5-0.1     c-0.3,0.3-0.1,0.3,0,0.3c0.1,0,0.3-0.1,0,0.2l0.2,0.1L1.8,5.8C1.9,6,2,5.8,2.1,5.7c0,0.1-0.1,0.1-0.1,0.1C2.1,6,2.1,6,2.4,5.8     L2.4,6C2.4,5.9,2.4,6,2.5,6.1s0.1,0.2,0.3,0.1c0,0,0,0.1-0.1,0.1C2.8,6.2,2.9,6.3,3,6.4s0.2,0.1,0.3-0.2L3.4,6     C3.3,6,3.5,5.8,3.4,5.7c0.1,0,0.1,0.2,0,0.2v0C3.4,6.2,3.7,6,3.6,6.2c0.3,0,0.6,0,0.9-0.1L4.4,6c0,0,0.1,0,0.1,0     c0,0,0.1,0.1,0,0.1c0.1,0.1,0.1-0.1,0.1-0.2c0.1,0,0,0.2,0.1,0.2l0.1,0h0c0-0.1,0-0.1,0.1-0.2C4.9,5.9,4.9,6,4.9,6h0L5,5.9     L4.9,5.8c0-0.1,0.1-0.1,0-0.1c0.1,0.1,0.4-0.2,0.4-0.2c0-0.1,0.1-0.1,0.1-0.2c0,0-0.1-0.1,0-0.1c0.1,0.2,0.1,0,0.3,0     C5.7,5.2,5.9,5,5.7,5c0,0,0,0,0.1,0c0-0.1,0.2-0.2,0.3-0.4c0,0,0,0,0,0c0,0,0,0,0,0c0,0,0.1,0,0.1-0.1c0,0-0.1-0.1,0-0.1h0     c0.1-0.3,0.2-0.6,0.2-1v0c0,0,0,0,0,0c0-0.1,0-0.1,0-0.1c0,0,0-0.1,0-0.2v0c0-0.1,0,0.1-0.1,0.1c0,0.1,0,0.2,0,0.3c0,0,0,0,0,0     v0.1l0,0c0,0.1-0.1,0.3-0.1,0.4h0c0,0,0,0,0,0.1c0,0.1,0-0.1,0.1-0.1c0,0-0.1,0.3-0.1,0.3c0,0.1,0,0,0,0.1h0v0c0,0,0,0.1-0.1,0     c0,0,0,0,0,0l0,0c0,0-0.1,0.1-0.1,0.1l0-0.1C5.8,4.7,5.7,4.8,5.6,5l0,0C5.5,5.1,5.5,5,5.4,5.1l0,0c0,0,0,0.1-0.1,0.1     c0,0-0.1,0,0,0c-0.1,0.1,0,0.1-0.1,0.1h0L5.2,5.4c0,0-0.1,0,0,0C5.1,5.4,5,5.5,4.9,5.5c0,0.1,0.1,0,0.1,0c0,0,0,0.1-0.1,0.1     c0,0-0.1,0-0.2,0h0c0,0-0.1,0.1-0.1,0c0,0-0.1,0-0.1,0.1l0.1,0c-0.1,0-0.1,0.1-0.2,0.1c0,0,0,0,0.1,0c0,0-0.1,0-0.1,0     c0,0,0.1,0,0.2-0.1c0,0-0.1,0.1-0.1,0c0,0.1-0.1,0-0.2,0.1v0c0,0,0,0-0.1,0l0,0c-0.1,0-0.1,0-0.2,0c0.1,0,0,0,0.1,0     c-0.1,0-0.1-0.1-0.3,0c0,0,0.1,0,0.1,0c0,0-0.1,0-0.1,0c-0.1,0,0,0,0,0c0,0-0.1,0-0.1,0v0c-0.1,0,0,0.1-0.1,0l0.1,0H3.6l0,0     c-0.1,0-0.1,0-0.1,0c0,0,0,0-0.1,0c0,0,0,0-0.1,0c0,0,0.1,0,0.1,0c0,0,0,0,0,0c0,0,0,0,0,0c0,0-0.1,0-0.1,0H3.3c0,0,0,0,0,0H3.2     c0,0,0,0,0.1,0l-0.1,0l0,0c-0.1,0-0.1,0-0.2-0.1h0C2.9,5.2,2.8,5.2,2.7,5.2l0-0.1c-0.1,0,0,0.1-0.1,0c-0.1,0,0,0,0-0.1     C2.5,5.1,2.4,5,2.3,5C2.3,4.9,2.3,4.9,2.3,5z M1.8,4.3C1.8,4.3,1.8,4.3,1.8,4.3C1.8,4.3,1.8,4.3,1.8,4.3L1.8,4.3z M1.5,3L1.5,3z      M4.5,0.6L4.5,0.6C4.5,0.6,4.5,0.6,4.5,0.6C4.5,0.6,4.5,0.6,4.5,0.6z"/>
			<path class="st1" d="M1.6,3.1L1.6,3.1C1.5,3.2,1.6,3.2,1.6,3.1z"/>
			<path class="st1" d="M2.8,5.2"/>
			<path class="st1" d="M3.2,1.1L3.2,1.1z"/>
			<path class="st1" d="M5,0.8L5,0.8C5,0.8,5,0.8,5,0.8C5,0.8,5,0.8,5,0.8C5,0.8,5,0.8,5,0.8z"/>
			<path class="st1" d="M5.2,1.4C5.2,1.4,5.2,1.4,5.2,1.4L5.2,1.4C5.2,1.4,5.2,1.4,5.2,1.4z"/>
			<path class="st1" d="M4.9,1C4.9,1.1,5,1.1,4.9,1L4.9,1C5,1,5,1,4.9,1z"/>
			<path class="st1" d="M5,1.1C5,1.1,5,1.1,5,1.1C5,1.1,5,1.1,5,1.1C5,1.1,5,1.1,5,1.1z"/>
			<path class="st1" d="M4.6,0.6C4.6,0.7,4.7,0.6,4.6,0.6C4.7,0.5,4.5,0.6,4.6,0.6z"/>
			<path class="st1" d="M4.9,1.2L4.9,1.2L4.9,1.2z"/>
			<path class="st1" d="M4.6,1L4.6,1C4.7,1,4.7,1,4.6,1C4.7,1,4.7,1,4.6,1C4.7,1,4.6,1,4.6,1z"/>
			<path class="st1" d="M4.7,1C4.7,1,4.7,1.1,4.7,1C4.7,1.1,4.7,1,4.7,1z"/>
			<path class="st1" d="M4.8,1.1L4.8,1.1L4.8,1.1L4.8,1.1z"/>
			<path class="st1" d="M4,0.8L4,0.8C3.9,0.9,3.9,0.9,4,0.8C4,0.9,4,0.9,4,0.8z"/>
			<path class="st1" d="M4.2,1"/>
			<path class="st1" d="M4,1C4,1,3.9,1,4,1C4,1,4,1,4,1z"/>
			<path class="st1" d="M3,1.1L3,1.1L3,0.8L3,1L3,1.1L3,1.1z"/>
			<path class="st1" d="M2.4,1.6C2.4,1.6,2.4,1.6,2.4,1.6C2.4,1.5,2.4,1.6,2.4,1.6C2.4,1.6,2.4,1.6,2.4,1.6z"/>
			<path class="st1" d="M2.4,1.5"/>
			<path class="st1" d="M6.2,3.2L6.2,3.2L6.2,3.2z"/>
			<path class="st1" d="M6.2,3.1L6.2,3.1L6.2,3.1C6.2,3,6.2,3,6.2,3.1z"/>
			<path class="st1" d="M1.8,4.1L1.8,4.1C1.8,4.1,1.8,4.2,1.8,4.1L1.8,4.1z"/>
			<path class="st1" d="M2.1,4.7L2.1,4.7L2.1,4.7L2.1,4.7z"/>
			<path class="st1" d="M2.5,5C2.5,5,2.5,5,2.5,5C2.5,5,2.5,5,2.5,5z"/>
		</g>
	</g>
</g>
</svg>